<?xml version="1.0" standalone="no"?>
<!DOCTYPE svg PUBLIC "-//W3C//DTD SVG 20010904//EN"
 "http://www.w3.org/TR/2001/REC-SVG-20010904/DTD/svg10.dtd">
<svg version="1.0" xmlns="http://www.w3.org/2000/svg"
 width="1500.000000pt" height="1500.000000pt" viewBox="0 0 1500.000000 1500.000000"
 preserveAspectRatio="xMidYMid meet">
<metadata>
Created by potrace 1.16, written by Peter Selinger 2001-2019
</metadata>
<g transform="translate(0.000000,1500.000000) scale(0.100000,-0.100000)"
fill="#000000" stroke="none">
<path d="M7440 13358 c-77 -26 -170 -92 -203 -144 -57 -88 -64 -127 -63 -337
1 -183 2 -194 24 -230 13 -20 32 -42 43 -47 10 -6 19 -14 19 -18 0 -5 -42 -13
-92 -20 -51 -6 -104 -14 -118 -17 -55 -11 -77 -14 -110 -19 -56 -8 -411 -82
-572 -118 -86 -20 -155 -41 -167 -52 -42 -38 -29 -86 25 -92 30 -3 131 -12
224 -20 163 -13 185 -17 176 -32 -2 -4 -7 -42 -11 -85 -3 -43 -8 -96 -10 -118
-6 -58 -13 -136 -20 -209 -6 -75 -16 -164 -18 -167 -1 0 -20 -2 -42 -4 -90 -7
-170 -62 -210 -143 -25 -52 -32 -93 -34 -202 l-1 -50 -97 -3 c-165 -3 -271
-23 -395 -74 -268 -109 -469 -299 -591 -558 -65 -139 -86 -235 -102 -469 -3
-47 -8 -105 -10 -130 -2 -25 -7 -83 -10 -130 -3 -47 -8 -105 -10 -130 -2 -25
-7 -88 -11 -140 -4 -52 -8 -111 -9 -130 -1 -19 -5 -80 -9 -135 -4 -55 -9 -113
-11 -130 -2 -16 -7 -75 -10 -130 -3 -55 -8 -116 -10 -135 -2 -19 -7 -80 -11
-135 -3 -55 -8 -118 -10 -140 -2 -22 -6 -74 -9 -115 -2 -41 -7 -104 -10 -140
-16 -205 -21 -272 -30 -395 -3 -44 -8 -102 -10 -130 -2 -27 -7 -86 -10 -130
-3 -44 -8 -107 -10 -140 -3 -33 -7 -91 -10 -130 -3 -38 -7 -95 -10 -125 -5
-57 -12 -160 -20 -270 -2 -36 -7 -94 -10 -130 -3 -36 -7 -94 -10 -130 -3 -36
-7 -92 -10 -125 -3 -33 -7 -94 -10 -135 -7 -97 -13 -179 -20 -260 -3 -36 -7
-96 -10 -135 -3 -38 -7 -99 -10 -135 -5 -71 -12 -166 -20 -275 -3 -38 -8 -95
-10 -125 -3 -30 -7 -91 -10 -135 -3 -44 -8 -105 -10 -135 -7 -83 -14 -166 -20
-255 -3 -44 -8 -105 -10 -135 -6 -66 -13 -161 -20 -250 -3 -36 -7 -92 -9 -125
-15 -193 -19 -255 -19 -303 1 -341 192 -646 491 -788 71 -34 145 -60 196 -70
12 -2 33 -6 48 -9 14 -4 64 -8 110 -10 46 -2 88 -5 93 -5 6 0 -2 -11 -16 -23
-23 -19 -65 -86 -68 -109 -1 -5 -1 -203 -1 -442 l0 -435 -54 0 c-148 0 -246
-103 -251 -263 -5 -163 96 -337 235 -408 92 -47 376 -120 560 -145 25 -3 72
-10 105 -15 92 -13 161 -21 310 -35 17 -2 86 -6 155 -10 69 -4 136 -8 150 -11
112 -18 1172 -26 1500 -12 85 4 168 7 183 8 16 0 27 4 25 9 -1 5 -120 130
-264 278 -143 147 -287 296 -320 329 -52 54 -344 355 -711 733 -68 69 -123
129 -123 132 0 3 363 5 808 5 444 -1 816 0 828 2 21 4 21 4 21 494 0 385 -3
493 -13 503 -7 7 -53 22 -103 35 l-89 22 57 56 c31 32 70 78 86 104 17 27 37
48 46 48 14 0 16 22 16 188 l0 187 -94 -1 c-70 -1 -119 4 -189 21 -91 23 -108
26 -204 40 -152 22 -286 29 -515 30 -192 0 -382 -8 -445 -19 -14 -3 -47 -7
-75 -11 -64 -7 -205 -34 -214 -39 -32 -20 -301 -31 -364 -15 -36 9 -120 60
-132 80 -15 23 215 434 380 684 252 379 436 561 725 718 l85 46 60 -33 c119
-65 141 -79 219 -135 85 -60 223 -191 297 -281 61 -75 187 -247 214 -291 6
-10 49 -80 96 -156 48 -77 96 -157 107 -179 47 -90 50 -88 49 17 l-2 96 -78
129 c-68 113 -242 369 -271 400 -6 7 -27 31 -46 55 -67 82 -185 196 -269 258
-91 67 -244 161 -263 161 -39 0 103 66 442 206 113 47 219 91 235 99 17 7 79
34 139 60 152 65 345 163 450 229 48 31 92 56 96 56 4 0 10 -12 13 -27 3 -16
16 -84 30 -153 32 -157 35 -173 43 -240 3 -30 8 -63 9 -72 4 -20 15 -145 20
-221 2 -29 4 -112 4 -184 l1 -133 119 0 c86 0 120 3 123 13 9 28 -4 419 -16
483 -2 10 -7 53 -11 94 -7 73 -9 88 -20 140 -2 14 -7 41 -10 60 -3 19 -15 78
-26 131 -11 52 -21 104 -23 115 -7 34 -44 177 -75 289 -44 161 -185 622 -201
660 -11 25 -80 252 -86 281 -2 12 -10 40 -19 63 -8 23 -15 45 -15 49 -1 4 -8
30 -16 58 -8 28 -16 60 -19 70 -2 11 -15 66 -29 124 -14 58 -27 121 -31 140
-3 19 -7 46 -10 60 -31 167 -48 355 -48 533 l0 107 -58 0 c-46 0 -59 3 -63 18
-3 9 -44 145 -92 302 -47 157 -90 299 -94 315 -5 17 -11 39 -15 50 -6 20 -2
20 240 18 277 -2 302 2 349 61 55 67 35 171 -41 221 -19 13 -67 22 -123 24
-13 1 -17 18 -19 89 -1 48 -4 119 -6 157 -2 39 -7 137 -11 218 l-6 149 83 -6
c113 -8 153 -14 229 -37 110 -33 207 -81 288 -141 163 -121 281 -276 345 -455
47 -130 50 -159 83 -718 2 -49 7 -121 9 -160 2 -38 7 -115 10 -170 3 -55 8
-125 10 -155 2 -30 6 -104 10 -165 3 -60 7 -139 10 -175 3 -36 7 -108 10 -160
3 -52 7 -124 10 -160 5 -85 14 -232 20 -345 11 -186 15 -252 20 -320 2 -38 7
-115 10 -170 3 -55 8 -134 10 -175 3 -41 7 -115 10 -165 6 -108 13 -212 20
-320 6 -98 16 -259 20 -340 6 -108 15 -259 20 -320 8 -126 22 -354 24 -407 l1
-28 130 0 130 0 -5 43 c-2 23 -7 94 -10 157 -3 63 -7 140 -10 170 -2 30 -6
107 -9 170 -4 63 -9 144 -11 180 -5 64 -11 161 -20 315 -3 44 -7 112 -10 150
-3 39 -7 113 -10 165 -3 52 -7 127 -10 165 -10 140 -16 233 -30 475 -6 101
-14 230 -20 320 -2 36 -7 112 -10 170 -4 58 -8 128 -10 155 -2 28 -7 100 -10
160 -3 61 -8 137 -10 170 -5 77 -13 204 -21 330 -3 55 -7 125 -9 155 -2 30 -6
98 -9 150 -3 52 -8 124 -11 160 -2 36 -7 108 -10 160 -3 52 -8 129 -10 170 -3
41 -7 113 -10 160 -10 159 -15 225 -20 250 -3 14 -7 36 -10 49 -8 41 -36 135
-49 166 -60 135 -90 186 -168 282 -158 195 -404 343 -628 378 -19 3 -46 8 -60
10 -14 3 -93 6 -176 7 l-151 2 -2 72 c-2 78 -3 88 -20 151 -17 63 -94 137
-161 157 -30 9 -66 16 -82 16 -20 0 -28 5 -29 18 0 9 -2 24 -3 32 -2 8 -6 54
-10 101 -6 81 -11 135 -21 239 -2 25 -7 82 -11 128 l-6 82 39 1 c21 0 46 2 57
4 10 2 51 6 91 9 72 6 153 14 209 21 43 6 59 26 47 58 -6 14 -20 33 -33 41
-18 12 -182 59 -278 81 -9 1 -69 15 -135 30 -66 15 -131 29 -145 31 -14 3 -32
7 -40 9 -8 3 -33 7 -55 11 -22 3 -42 7 -45 9 -3 2 -26 6 -50 10 -25 3 -67 10
-95 15 -27 5 -70 12 -95 15 -25 3 -57 8 -71 11 l-26 5 27 28 c43 42 50 88 47
292 -2 175 -3 187 -28 239 -34 73 -75 119 -147 163 -108 67 -231 83 -342 45z
m227 -169 c57 -25 109 -82 127 -138 17 -53 19 -248 4 -293 -11 -32 -59 -64
-107 -73 -19 -3 -38 -8 -43 -11 -17 -11 -135 -7 -189 6 -119 28 -132 48 -134
204 -2 146 11 199 63 251 81 81 177 100 279 54z m-310 -1092 c58 -31 92 -100
87 -179 -5 -74 -33 -118 -99 -151 -42 -21 -289 -24 -337 -4 -140 59 -144 275
-6 337 55 24 308 22 355 -3z m796 -7 c54 -36 81 -97 74 -169 -6 -74 -27 -113
-74 -143 -35 -21 -50 -23 -189 -25 l-151 -3 -46 30 c-57 36 -79 83 -79 162 1
58 16 94 57 132 40 37 72 43 223 42 138 -2 149 -3 185 -26z m-1892 -1237 c-2
-38 -4 -93 -6 -123 -2 -30 -6 -125 -10 -210 -4 -85 -8 -166 -8 -180 -2 -20 -7
-24 -24 -22 -12 2 -42 -6 -66 -16 -115 -51 -121 -207 -10 -269 36 -20 52 -21
293 -21 140 0 261 -1 269 -1 16 -1 17 1 -44 -206 -26 -88 -50 -173 -55 -190
-6 -25 -25 -91 -79 -275 -6 -21 -15 -26 -55 -30 l-48 -5 -4 -155 c-4 -202 -12
-294 -45 -490 -12 -69 -22 -132 -23 -140 -11 -84 -132 -540 -241 -910 -25 -85
-48 -162 -50 -171 -2 -9 -12 -47 -24 -85 -16 -57 -84 -321 -96 -374 -12 -54
-55 -271 -59 -300 -3 -19 -10 -62 -16 -95 -6 -33 -13 -82 -16 -110 -2 -27 -7
-66 -10 -85 -24 -164 -24 -702 1 -829 2 -13 7 -42 9 -65 47 -367 193 -708 388
-905 117 -119 217 -175 333 -187 36 -4 68 -11 72 -17 3 -6 2 -7 -4 -4 -6 4
-124 7 -262 7 -233 1 -256 3 -288 21 -70 39 -93 82 -99 187 -8 132 -65 224
-172 278 l-57 29 -385 3 c-212 1 -384 5 -384 10 1 4 5 54 9 112 4 58 8 121 10
140 2 19 6 78 9 130 4 52 9 115 11 140 2 25 7 83 10 130 3 47 8 110 10 140 2
30 7 91 10 135 3 44 8 105 10 135 2 30 7 93 10 140 3 47 8 105 10 130 2 25 7
86 10 135 3 50 8 113 10 140 3 28 8 86 11 130 17 263 24 352 29 405 2 25 7 86
10 135 3 50 8 110 10 135 7 88 15 196 20 280 3 47 7 105 10 130 2 25 7 83 10
130 3 47 8 114 10 150 3 36 7 92 10 125 2 33 7 96 10 140 4 44 8 107 10 140 4
61 13 178 20 270 3 28 7 84 10 125 3 41 7 102 10 135 2 33 7 98 10 145 3 47 8
105 10 130 2 25 7 88 10 140 3 52 8 115 10 140 2 25 6 81 10 125 3 44 8 107
10 140 3 33 7 94 10 135 15 207 21 248 57 355 58 176 191 356 353 479 74 56
238 132 335 155 80 19 150 29 159 24 2 -2 3 -33 2 -70z m2295 -1791 c7 -1 12
-25 13 -59 0 -32 3 -67 5 -78 2 -11 7 -51 10 -90 4 -38 11 -92 16 -120 5 -27
12 -67 14 -87 3 -21 10 -57 15 -80 6 -24 12 -54 15 -68 2 -14 12 -54 21 -90 8
-36 18 -73 20 -82 21 -91 120 -426 195 -663 23 -71 50 -158 61 -192 10 -35 28
-93 40 -130 11 -38 29 -97 39 -133 10 -36 28 -96 39 -135 l20 -70 -25 -22
c-77 -69 -380 -226 -669 -347 -88 -37 -169 -71 -180 -76 -11 -5 -40 -17 -65
-28 -25 -10 -65 -27 -90 -38 -24 -10 -47 -19 -50 -20 -3 0 -32 -13 -65 -28
-33 -15 -114 -52 -180 -82 -66 -30 -125 -54 -131 -54 -6 0 -44 16 -85 36 -41
20 -200 90 -354 156 -154 66 -304 131 -333 144 -29 13 -55 24 -58 24 -2 0 -41
17 -87 39 -45 21 -104 49 -132 61 -82 39 -225 119 -308 173 -73 48 -77 53 -73
82 6 36 93 360 131 490 114 383 184 636 229 835 30 128 32 140 40 190 3 19 8
46 11 60 3 14 7 43 10 65 3 22 7 54 10 70 3 17 7 44 10 60 2 17 8 68 11 115
11 137 12 144 13 161 1 14 96 15 944 14 518 -1 947 -3 953 -3z m-2318 -2232
c6 0 12 -4 14 -8 3 -8 79 -52 187 -109 104 -55 300 -144 536 -243 295 -124
323 -136 435 -188 25 -11 60 -27 78 -35 l33 -13 -73 -44 c-248 -146 -381 -265
-559 -495 -48 -63 -219 -312 -219 -320 0 -3 -15 -28 -34 -57 -54 -86 -132
-226 -231 -415 l-48 -92 -34 47 c-105 145 -201 413 -233 654 -6 42 -13 86 -15
97 -21 110 -22 623 -1 726 2 12 7 51 10 87 4 37 8 75 10 85 2 10 9 52 15 93 7
41 22 121 33 177 l21 103 33 -25 c18 -14 37 -25 42 -25z m-874 -2043 c210 0
352 -4 371 -10 83 -29 121 -90 129 -210 10 -130 72 -223 184 -274 55 -26 58
-26 323 -26 200 -1 271 2 283 12 12 10 17 7 32 -21 16 -32 65 -97 112 -147
l24 -26 -44 -8 c-269 -50 -555 -155 -718 -264 -90 -60 -111 -75 -135 -98 -17
-17 -33 -20 -110 -19 -113 1 -224 13 -247 25 -10 5 -18 7 -18 4 0 -8 -126 42
-184 72 -239 127 -398 390 -407 673 -1 51 9 231 16 290 2 14 4 29 4 33 1 5 11
5 23 1 12 -3 175 -7 362 -7z"/>
<path fill="#00b3e0" d="M8869 5638 c-1 -2 -2 -606 -3 -1343 l-1 -1340 -25 -45 c-16 -28 -43
-55 -73 -74 l-49 -30 -618 0 c-478 0 -617 -3 -612 -12 4 -7 117 -126 252 -264
135 -139 272 -280 304 -314 32 -33 177 -182 321 -331 144 -148 302 -310 349
-360 48 -49 147 -151 219 -226 192 -197 640 -658 825 -849 l159 -164 175 179
c97 99 206 212 244 251 79 82 517 534 644 664 47 49 198 204 335 346 138 142
279 288 315 324 388 396 720 742 720 750 0 3 -262 6 -582 5 -321 0 -605 3
-632 7 -58 9 -103 37 -137 87 l-24 36 -3 1353 -2 1352 -1050 0 c-578 0 -1050
-1 -1051 -2z"/>
</g>
</svg>
