<?xml version="1.0" standalone="no"?>
<!DOCTYPE svg PUBLIC "-//W3C//DTD SVG 20010904//EN"
 "http://www.w3.org/TR/2001/REC-SVG-20010904/DTD/svg10.dtd">
<svg version="1.0" xmlns="http://www.w3.org/2000/svg"
 width="1200.000000pt" height="1200.000000pt" viewBox="0 0 1200.000000 1200.000000"
 preserveAspectRatio="xMidYMid meet">
<metadata>
Created by potrace 1.16, written by Peter Selinger 2001-2019
</metadata>
<g transform="translate(0.000000,1200.000000) scale(0.100000,-0.100000)"
fill="#000000" stroke="none">
<path d="M869 9346 c-102 -27 -190 -103 -238 -205 l-26 -56 0 -3245 0 -3245
32 -66 c39 -79 102 -140 181 -177 l57 -27 5090 -3 c5646 -2 5156 -8 5262 64
56 39 87 74 124 144 l24 45 0 3265 0 3265 -24 45 c-54 103 -126 164 -230 194
-50 15 -521 16 -5130 15 -3989 0 -5086 -3 -5122 -13z m9116 -725 c-11 -10
-283 -213 -605 -451 -322 -239 -1210 -898 -1975 -1465 -764 -567 -1396 -1035
-1403 -1039 -8 -5 -688 495 -1909 1401 -1043 774 -1943 1442 -2000 1483 -56
41 -103 78 -103 83 0 4 1803 7 4007 7 3900 0 4007 0 3988 -19z m-7050 -1480
c878 -651 1594 -1189 1592 -1195 -3 -10 -3194 -2616 -3203 -2616 -2 0 -4 1125
-4 2501 0 1624 3 2499 10 2497 5 -1 728 -536 1605 -1187z m7735 -1306 c0
-1447 -4 -2486 -9 -2489 -11 -7 -3176 2606 -3176 2622 0 15 3165 2363 3176
2356 5 -3 9 -1041 9 -2489z m-2082 -1491 c856 -707 1559 -1290 1560 -1295 2
-5 -1602 -9 -4152 -9 -2286 0 -4156 3 -4155 8 0 4 98 86 217 182 119 97 825
672 1569 1278 743 606 1356 1102 1362 1102 5 0 194 -137 419 -304 224 -167
428 -314 453 -327 61 -33 193 -34 259 -2 25 11 236 163 469 337 234 174 429
316 433 316 5 0 710 -579 1566 -1286z"/>
</g>
</svg>
