<?xml version="1.0" encoding="UTF-8" standalone="no"?>
<!-- Generator: Adobe Illustrator 18.1.1, SVG Export Plug-In . SVG Version: 6.00 Build 0)  -->

<svg
   version="1.1"
   id="Layer_1"
   x="0px"
   y="0px"
   viewBox="0 0 450 240"
   enable-background="new 0 0 480 640"
   xml:space="preserve"
   sodipodi:docname="IFTF_logo.svg"
   inkscape:version="1.2.1 (9c6d41e4, 2022-07-14)"
   width="450"
   height="240"
   inkscape:export-filename="IFTF_logo.png"
   inkscape:export-xdpi="192"
   inkscape:export-ydpi="192"
   xmlns:inkscape="http://www.inkscape.org/namespaces/inkscape"
   xmlns:sodipodi="http://sodipodi.sourceforge.net/DTD/sodipodi-0.dtd"
   xmlns="http://www.w3.org/2000/svg"
   xmlns:svg="http://www.w3.org/2000/svg"><defs
   id="defs332"><filter
   inkscape:collect="always"
   style="color-interpolation-filters:sRGB"
   id="filter1576"
   x="-0.03900325"
   y="-0.042528057"
   width="1.0780065"
   height="1.0850561"
   inkscape:label="Drop-Glow"><feMorphology
     id="feMorphology3132"
     operator="dilate"
     radius="4 2" /><feGaussianBlur
     inkscape:collect="always"
     stdDeviation="3"
     id="feGaussianBlur1578" /></filter>
	
	
	
	
	
	
	
	
	
	
	
	
	
	
	
	
	
	
	
	
	
	
	
	
	
	
	
	
	
	
	
	
	
	
	
	
	
	
</defs><sodipodi:namedview
   id="namedview330"
   pagecolor="#ffffff"
   bordercolor="#666666"
   borderopacity="1.0"
   inkscape:showpageshadow="2"
   inkscape:pageopacity="0.0"
   inkscape:pagecheckerboard="0"
   inkscape:deskcolor="#d1d1d1"
   showgrid="false"
   inkscape:zoom="1.159375"
   inkscape:cx="190.18868"
   inkscape:cy="254.44744"
   inkscape:window-width="1536"
   inkscape:window-height="864"
   inkscape:window-x="63"
   inkscape:window-y="47"
   inkscape:window-maximized="0"
   inkscape:current-layer="Layer_1" />


<g
   inkscape:groupmode="layer"
   id="layer2"
   inkscape:label="Backdrop"
   style="display:none"
   sodipodi:insensitive="true"><rect
     style="fill:#000000;fill-opacity:1;stroke:#00ff29;stroke-width:0.5;stop-color:#000000"
     id="rect1317"
     width="450"
     height="240"
     x="0"
     y="0" /></g><g
   inkscape:groupmode="layer"
   id="layer3"
   inkscape:label="Glow" /><path
   id="path323-0"
   d="m 405.8,169 h 4.5 l 7.1,19.7 h 0.1 V 169 h 4.7 v 32.7 h -4.4 L 410.6,182 h -0.1 v 19.7 h -4.7 z m -19.6,7.7 c 0,-1.3 0.2,-2.5 0.7,-3.5 0.5,-1 1.1,-1.8 1.8,-2.5 0.7,-0.7 1.6,-1.2 2.5,-1.5 0.9,-0.3 1.9,-0.5 2.8,-0.5 0.9,0 1.9,0.2 2.8,0.5 0.9,0.3 1.8,0.8 2.5,1.5 0.7,0.7 1.4,1.5 1.8,2.5 0.5,1 0.7,2.2 0.7,3.5 V 194 c 0,1.3 -0.2,2.5 -0.7,3.5 -0.5,1 -1.1,1.8 -1.8,2.5 -0.8,0.7 -1.6,1.2 -2.5,1.5 -0.9,0.3 -1.9,0.5 -2.8,0.5 -0.9,0 -1.9,-0.2 -2.8,-0.5 -0.9,-0.3 -1.8,-0.8 -2.5,-1.5 -0.7,-0.7 -1.4,-1.5 -1.8,-2.5 -0.5,-1 -0.7,-2.2 -0.7,-3.5 z m 4.6,17.3 c 0,1.1 0.3,2 0.9,2.5 0.6,0.5 1.4,0.8 2.2,0.8 0.9,0 1.6,-0.3 2.2,-0.8 0.6,-0.5 0.9,-1.4 0.9,-2.5 v -17.3 c 0,-1.1 -0.3,-2 -0.9,-2.5 -0.6,-0.5 -1.4,-0.8 -2.2,-0.8 -0.9,0 -1.6,0.3 -2.2,0.8 -0.6,0.5 -0.9,1.4 -0.9,2.5 z m -13.6,-25 h 4.7 v 32.7 h -4.7 z m -12.3,4.4 h -5.4 V 169 H 375 v 4.4 h -5.4 v 28.3 h -4.7 z M 350.8,169 h 3.9 l 7.3,32.7 h -4.7 l -1.4,-7 h -6.4 l -1.4,7 h -4.7 z m 2,9.4 v 0 l -2.4,11.9 h 4.7 z M 326.6,169 h 6.9 c 2.7,0 4.7,0.7 6.1,2.2 1.4,1.5 2.1,3.6 2.1,6.2 v 15.3 c 0,3.1 -0.7,5.3 -2.2,6.8 -1.5,1.5 -3.6,2.2 -6.4,2.2 h -6.5 z m 4.7,28.3 h 2.2 c 1.3,0 2.3,-0.3 2.8,-1 0.5,-0.7 0.8,-1.7 0.8,-3.1 v -15.8 c 0,-1.3 -0.3,-2.3 -0.8,-3 -0.5,-0.7 -1.5,-1.1 -2.8,-1.1 h -2.2 z M 306.1,169 h 4.5 l 7.1,19.7 h 0.1 V 169 h 4.7 v 32.7 H 318 L 310.8,182 h -0.1 v 19.7 H 306 V 169 Z m -4.3,25.3 c 0,1.1 -0.2,2.1 -0.6,3 -0.4,0.9 -0.9,1.7 -1.6,2.4 -0.7,0.7 -1.5,1.2 -2.4,1.6 -0.9,0.4 -1.9,0.6 -2.9,0.6 -1,0 -2,-0.2 -2.9,-0.6 -0.9,-0.4 -1.7,-0.9 -2.4,-1.6 -0.7,-0.7 -1.2,-1.5 -1.6,-2.4 -0.4,-0.9 -0.6,-1.9 -0.6,-3 V 169 h 4.7 v 24.9 c 0,1.2 0.3,2 0.8,2.6 0.6,0.6 1.2,0.8 2.1,0.8 0.8,0 1.5,-0.3 2.1,-0.8 0.6,-0.6 0.8,-1.4 0.8,-2.6 V 169 h 4.7 v 25.3 z m -35,-17.6 c 0,-1.3 0.2,-2.5 0.7,-3.5 0.5,-1 1.1,-1.8 1.8,-2.5 0.7,-0.7 1.6,-1.2 2.5,-1.5 0.9,-0.3 1.9,-0.5 2.8,-0.5 0.9,0 1.9,0.2 2.8,0.5 0.9,0.3 1.8,0.8 2.5,1.5 0.7,0.7 1.4,1.5 1.8,2.5 0.5,1 0.7,2.2 0.7,3.5 V 194 c 0,1.3 -0.2,2.5 -0.7,3.5 -0.5,1 -1.1,1.8 -1.8,2.5 -0.8,0.7 -1.6,1.2 -2.5,1.5 -0.9,0.3 -1.9,0.5 -2.8,0.5 -0.9,0 -1.9,-0.2 -2.8,-0.5 -0.9,-0.3 -1.8,-0.8 -2.5,-1.5 -0.7,-0.7 -1.4,-1.5 -1.8,-2.5 -0.5,-1 -0.7,-2.2 -0.7,-3.5 z m 4.7,17.3 c 0,1.1 0.3,2 0.9,2.5 0.6,0.5 1.4,0.8 2.2,0.8 0.9,0 1.6,-0.3 2.2,-0.8 0.6,-0.5 0.9,-1.4 0.9,-2.5 v -17.3 c 0,-1.1 -0.3,-2 -0.9,-2.5 -0.6,-0.5 -1.4,-0.8 -2.2,-0.8 -0.9,0 -1.6,0.3 -2.2,0.8 -0.6,0.5 -0.9,1.4 -0.9,2.5 z m -21.4,-25 h 14 v 4.4 h -9.3 v 9.9 h 8.1 v 4.4 h -8.1 v 14 h -4.7 z m 171,-26.4 -6.4,-18.9 h 5 l 3.8,13 h 0.1 l 3.8,-13 h 5 l -6.4,18.9 v 13.8 h -4.7 v -13.8 z m -24.2,-11.2 c 0,-1.3 0.2,-2.5 0.7,-3.5 0.5,-1 1.1,-1.8 1.8,-2.5 0.7,-0.7 1.6,-1.2 2.5,-1.5 0.9,-0.3 1.9,-0.5 2.8,-0.5 0.9,0 1.9,0.2 2.8,0.5 0.9,0.3 1.8,0.8 2.5,1.5 0.8,0.7 1.4,1.5 1.8,2.5 0.5,1 0.7,2.2 0.7,3.5 v 1.7 h -4.7 v -1.7 c 0,-1.1 -0.3,-2 -0.9,-2.5 -0.6,-0.5 -1.4,-0.8 -2.2,-0.8 -0.9,0 -1.6,0.3 -2.2,0.8 -0.6,0.5 -0.9,1.4 -0.9,2.5 v 17.3 c 0,1.1 0.3,2 0.9,2.5 0.6,0.5 1.4,0.8 2.2,0.8 0.9,0 1.6,-0.3 2.2,-0.8 0.6,-0.5 0.9,-1.4 0.9,-2.5 v -6.2 h -3.7 v -4.1 h 8.4 v 10.3 c 0,1.3 -0.2,2.5 -0.7,3.5 -0.5,1 -1.1,1.8 -1.8,2.5 -0.7,0.7 -1.6,1.2 -2.5,1.5 -0.9,0.3 -1.9,0.5 -2.8,0.5 -1,0 -1.9,-0.2 -2.8,-0.5 -0.9,-0.3 -1.8,-0.8 -2.5,-1.5 -0.7,-0.7 -1.4,-1.5 -1.8,-2.5 -0.5,-1 -0.7,-2.2 -0.7,-3.5 z m -19.6,0 c 0,-1.3 0.2,-2.5 0.7,-3.5 0.5,-1 1.1,-1.8 1.8,-2.5 0.7,-0.7 1.6,-1.2 2.5,-1.5 0.9,-0.3 1.9,-0.5 2.8,-0.5 0.9,0 1.9,0.2 2.8,0.5 0.9,0.3 1.8,0.8 2.5,1.5 0.7,0.7 1.4,1.5 1.8,2.5 0.5,1 0.7,2.2 0.7,3.5 v 17.3 c 0,1.3 -0.2,2.5 -0.7,3.5 -0.5,1 -1.1,1.8 -1.8,2.5 -0.8,0.7 -1.6,1.2 -2.5,1.5 -0.9,0.3 -1.9,0.5 -2.8,0.5 -0.9,0 -1.9,-0.2 -2.8,-0.5 -0.9,-0.3 -1.8,-0.8 -2.5,-1.5 -0.7,-0.7 -1.4,-1.5 -1.8,-2.5 -0.5,-1 -0.7,-2.2 -0.7,-3.5 z m 4.7,17.3 c 0,1.1 0.3,2 0.9,2.5 0.6,0.5 1.4,0.8 2.2,0.8 0.9,0 1.6,-0.3 2.2,-0.8 0.6,-0.5 0.9,-1.4 0.9,-2.5 v -17.3 c 0,-1.1 -0.3,-2 -0.9,-2.5 -0.6,-0.5 -1.4,-0.8 -2.2,-0.8 -0.9,0 -1.6,0.3 -2.2,0.8 -0.6,0.5 -0.9,1.4 -0.9,2.5 z m -21.4,-25 h 4.7 v 28 h 9.3 v 4.7 h -14 z m -19.9,7.7 c 0,-1.3 0.2,-2.5 0.7,-3.5 0.5,-1 1.1,-1.8 1.8,-2.5 0.7,-0.7 1.6,-1.2 2.5,-1.5 0.9,-0.3 1.9,-0.5 2.8,-0.5 0.9,0 1.9,0.2 2.8,0.5 0.9,0.3 1.8,0.8 2.5,1.5 0.7,0.7 1.4,1.5 1.8,2.5 0.5,1 0.7,2.2 0.7,3.5 v 17.3 c 0,1.3 -0.2,2.5 -0.7,3.5 -0.5,1 -1.1,1.8 -1.8,2.5 -0.7,0.7 -1.6,1.2 -2.5,1.5 -0.9,0.3 -1.9,0.5 -2.8,0.5 -1,0 -1.9,-0.2 -2.8,-0.5 -0.9,-0.3 -1.8,-0.8 -2.5,-1.5 -0.7,-0.7 -1.4,-1.5 -1.8,-2.5 -0.5,-1 -0.7,-2.2 -0.7,-3.5 z m 4.7,17.3 c 0,1.1 0.3,2 0.9,2.5 0.6,0.5 1.4,0.8 2.2,0.8 0.9,0 1.6,-0.3 2.2,-0.8 0.6,-0.5 0.9,-1.4 0.9,-2.5 v -17.3 c 0,-1.1 -0.3,-2 -0.9,-2.5 -0.6,-0.5 -1.4,-0.8 -2.2,-0.8 -0.9,0 -1.6,0.3 -2.2,0.8 -0.6,0.5 -0.9,1.4 -0.9,2.5 z m -25,-25 h 4.5 l 7.1,19.7 h 0.1 v -19.7 h 4.7 v 32.7 h -4.4 l -7.2,-19.7 h -0.1 v 19.7 h -4.7 z m -19.4,0 h 4.7 v 14 h 5.8 v -14 h 4.7 v 32.7 h -4.7 v -14.6 h -5.8 v 14.6 H 301 Z m -3.8,25.4 c 0,1 -0.2,2 -0.6,2.9 -0.4,0.9 -0.9,1.7 -1.6,2.4 -0.7,0.7 -1.5,1.2 -2.4,1.7 -0.9,0.4 -1.9,0.6 -2.9,0.6 -0.9,0 -1.8,-0.1 -2.7,-0.4 -0.9,-0.2 -1.7,-0.7 -2.5,-1.3 -0.7,-0.6 -1.3,-1.4 -1.8,-2.4 -0.5,-1 -0.7,-2.2 -0.7,-3.7 v -18 c 0,-1.1 0.2,-2.1 0.6,-3 0.4,-0.9 0.9,-1.7 1.6,-2.4 0.7,-0.7 1.5,-1.2 2.4,-1.6 0.9,-0.4 2,-0.6 3.1,-0.6 1.1,0 2.1,0.2 3,0.6 0.9,0.4 1.7,0.9 2.4,1.6 0.7,0.7 1.2,1.5 1.6,2.5 0.4,1 0.6,2 0.6,3.1 v 1.8 h -4.7 v -1.6 c 0,-0.9 -0.3,-1.7 -0.8,-2.4 -0.5,-0.7 -1.2,-1 -2.1,-1 -1.2,0 -1.9,0.4 -2.3,1.1 -0.4,0.7 -0.6,1.6 -0.6,2.7 v 16.7 c 0,0.9 0.2,1.7 0.6,2.4 0.4,0.6 1.2,1 2.2,1 0.3,0 0.6,-0.1 1,-0.2 0.4,-0.1 0.7,-0.3 1,-0.5 0.3,-0.2 0.5,-0.6 0.7,-1 0.2,-0.4 0.3,-1 0.3,-1.6 v -1.6 h 4.7 v 2.2 z m -31.8,-25.4 h 14 v 4.4 H 270 v 9.6 h 8.1 v 4.4 H 270 v 9.6 h 9.3 v 4.7 h -14 v -32.7 z m -12.2,4.4 h -5.4 v -4.4 h 15.5 v 4.4 h -5.4 v 28.3 h -4.7 z m 86,-49.7 h 4.5 l 7.1,19.7 h 0.1 V 78.4 h 4.7 v 32.7 h -4.4 L 344,91.4 h -0.1 v 19.7 h -4.7 z m -19.7,7.7 c 0,-1.3 0.2,-2.5 0.7,-3.5 0.5,-1 1.1,-1.8 1.8,-2.5 0.8,-0.7 1.6,-1.2 2.5,-1.5 0.9,-0.3 1.9,-0.5 2.8,-0.5 0.9,0 1.9,0.2 2.8,0.5 0.9,0.3 1.8,0.8 2.5,1.5 0.8,0.7 1.4,1.5 1.8,2.5 0.5,1 0.7,2.2 0.7,3.5 v 17.3 c 0,1.3 -0.2,2.5 -0.7,3.5 -0.5,1 -1.1,1.8 -1.8,2.5 -0.8,0.7 -1.6,1.2 -2.5,1.5 -0.9,0.3 -1.9,0.5 -2.8,0.5 -1,0 -1.9,-0.2 -2.8,-0.5 -0.9,-0.3 -1.8,-0.8 -2.5,-1.5 -0.8,-0.7 -1.4,-1.5 -1.8,-2.5 -0.5,-1 -0.7,-2.2 -0.7,-3.5 z m 4.7,17.3 c 0,1.1 0.3,2 0.9,2.5 0.6,0.5 1.4,0.8 2.2,0.8 0.9,0 1.6,-0.3 2.2,-0.8 0.6,-0.5 0.9,-1.4 0.9,-2.5 V 86.1 c 0,-1.1 -0.3,-2 -0.9,-2.5 -0.6,-0.5 -1.4,-0.8 -2.2,-0.8 -0.9,0 -1.6,0.3 -2.2,0.8 -0.6,0.5 -0.9,1.4 -0.9,2.5 z m -13.6,-25 h 4.7 v 32.7 h -4.7 z m -12.4,4.4 h -5.4 v -4.4 h 15.5 v 4.4 h -5.4 v 28.3 h -4.7 z m -6.8,21 c 0,1 -0.2,2 -0.6,2.9 -0.4,0.9 -0.9,1.7 -1.6,2.4 -0.7,0.7 -1.5,1.2 -2.4,1.7 -0.9,0.4 -1.9,0.6 -2.9,0.6 -0.9,0 -1.8,-0.1 -2.7,-0.4 -0.9,-0.2 -1.7,-0.7 -2.5,-1.3 -0.7,-0.6 -1.3,-1.4 -1.8,-2.4 -0.5,-1 -0.7,-2.2 -0.7,-3.7 v -18 c 0,-1.1 0.2,-2.1 0.5,-3 0.4,-0.9 0.9,-1.7 1.6,-2.4 0.7,-0.7 1.5,-1.2 2.4,-1.6 0.9,-0.4 2,-0.6 3.1,-0.6 1.1,0 2.1,0.2 3,0.6 0.9,0.4 1.7,0.9 2.4,1.6 0.7,0.7 1.2,1.5 1.6,2.5 0.4,1 0.6,2 0.6,3.1 v 1.8 h -4.7 V 86 c 0,-0.9 -0.3,-1.7 -0.8,-2.4 -0.5,-0.7 -1.2,-1 -2.1,-1 -1.2,0 -1.9,0.4 -2.3,1.1 -0.4,0.7 -0.6,1.6 -0.6,2.7 v 16.7 c 0,1 0.2,1.7 0.6,2.4 0.4,0.6 1.2,1 2.2,1 0.3,0 0.6,-0.1 1,-0.2 0.4,-0.1 0.7,-0.3 1,-0.5 0.3,-0.2 0.5,-0.6 0.7,-1 0.2,-0.4 0.3,-1 0.3,-1.6 v -1.6 h 4.7 z M 267.2,78.4 h 4.7 v 32.7 h -4.7 z m -17.1,0 h 14 v 4.4 h -9.3 v 9.9 h 8.1 v 4.4 h -8.1 v 14 h -4.7 z M 412.4,33.1 h 14 v 4.4 h -9.3 v 9.6 h 8.1 v 4.4 h -8.1 v 9.6 h 9.3 v 4.7 h -14 z m -9.5,32.7 h -4.1 l -6.7,-32.7 h 5 l 3.7,22.8 h 0.1 l 3.8,-22.8 h 5 z M 384.5,33.1 h 4.7 v 32.7 h -4.7 z m -12.4,4.4 h -5.4 v -4.4 h 15.5 v 4.4 h -5.4 v 28.3 h -4.7 z m -6.8,21 c 0,1 -0.2,2 -0.6,2.9 -0.4,0.9 -0.9,1.7 -1.6,2.4 -0.7,0.7 -1.5,1.2 -2.4,1.7 -0.9,0.4 -1.9,0.6 -2.9,0.6 -0.9,0 -1.8,-0.1 -2.7,-0.4 -0.9,-0.2 -1.7,-0.7 -2.5,-1.3 -0.7,-0.6 -1.3,-1.4 -1.8,-2.4 -0.5,-1 -0.7,-2.2 -0.7,-3.7 v -18 c 0,-1.1 0.2,-2.1 0.6,-3 0.4,-0.9 0.9,-1.7 1.6,-2.4 0.7,-0.7 1.5,-1.2 2.4,-1.6 0.9,-0.4 2,-0.6 3.1,-0.6 1.1,0 2.1,0.2 3,0.6 0.9,0.4 1.7,0.9 2.4,1.6 0.7,0.7 1.2,1.5 1.6,2.5 0.4,1 0.6,2 0.6,3.1 v 1.8 h -4.7 v -1.6 c 0,-0.9 -0.3,-1.7 -0.8,-2.4 -0.5,-0.7 -1.2,-1 -2.1,-1 -1.2,0 -1.9,0.4 -2.3,1.1 -0.4,0.7 -0.6,1.6 -0.6,2.7 v 16.7 c 0,1 0.2,1.7 0.6,2.4 0.4,0.6 1.2,1 2.2,1 0.3,0 0.6,-0.1 1,-0.2 0.4,-0.1 0.7,-0.3 1,-0.5 0.3,-0.2 0.5,-0.6 0.7,-1 0.2,-0.4 0.3,-1 0.3,-1.6 v -1.6 h 4.7 v 2.2 z M 336.9,33.1 h 3.9 l 7.3,32.7 h -4.7 l -1.4,-7 h -6.4 l -1.4,7 h -4.7 z m 1.9,9.4 v 0 l -2.4,11.9 h 4.7 z m -26.7,-9.4 h 7.5 c 5.5,0 8.3,3.2 8.3,9.6 0,1.9 -0.3,3.5 -0.9,4.9 -0.6,1.4 -1.6,2.5 -3.1,3.3 l 5.1,14.9 h -5 l -4.4,-14 h -2.8 v 14 h -4.7 z m 4.7,14.6 h 2.7 c 0.8,0 1.5,-0.1 2,-0.3 0.5,-0.2 0.9,-0.6 1.1,-1 0.3,-0.4 0.4,-1 0.5,-1.6 0.1,-0.6 0.1,-1.4 0.1,-2.2 0,-0.8 0,-1.6 -0.1,-2.2 -0.1,-0.6 -0.3,-1.2 -0.6,-1.6 -0.3,-0.4 -0.7,-0.8 -1.2,-1 -0.5,-0.2 -1.2,-0.3 -2.1,-0.3 h -2.4 z M 295.1,33.1 h 14 v 4.4 h -9.3 v 9.6 h 8.1 v 4.4 h -8.1 v 9.6 h 9.3 v 4.7 h -14 z M 283,37.5 h -5.4 v -4.4 h 15.5 v 4.4 h -5.4 V 65.8 H 283 Z m -23.7,-4.4 h 4.5 l 7.1,19.7 H 271 V 33.1 h 4.7 v 32.7 h -4.4 L 264.1,46.1 H 264 v 19.7 h -4.7 z m -9,0 h 4.7 v 32.7 h -4.7 z"
   style="fill:#ffffff;fill-opacity:1;filter:url(#filter1576)" /><path
   d="m 208.4,130.1 c -9.6,0 -17.4,7.8 -17.4,17.4 0,3.5 1.1,6.8 2.9,9.5 l -33.7,32.5 c -2,-1.4 -4.3,-2.4 -6.8,-2.9 v -22.1 c 8,-1.5 14.2,-8.6 14.2,-17.1 0,-8.5 -6.1,-15.6 -14.2,-17.1 V 92 c 0,-1.8 -1.4,-3.2 -3.2,-3.2 H 112.7 C 112.2,86 111,83.5 109.3,81.3 l 31.4,-31 c 2.7,1.8 6,2.9 9.5,2.9 4,0 7.6,-1.4 10.6,-3.6 L 194,82.4 c -1.9,2.8 -3,6.1 -3,9.7 0,9.6 7.8,17.4 17.4,17.4 9.6,0 17.4,-7.8 17.4,-17.4 0,-9.6 -7.8,-17.4 -17.4,-17.4 -3.7,0 -7.1,1.2 -9.9,3.1 L 165,44.8 c 1.6,-2.6 2.5,-5.7 2.5,-8.9 0,-9.6 -7.8,-17.4 -17.4,-17.4 -8.5,0 -15.6,6.1 -17.1,14.2 h -20.4 c -1.5,-8 -8.6,-14.2 -17.1,-14.2 -9.6,0 -17.4,7.8 -17.4,17.4 0,3.3 0.9,6.3 2.5,8.9 l -33.5,33 c -2.8,-1.9 -6.2,-3.1 -9.9,-3.1 -9.6,0 -17.4,7.8 -17.4,17.4 0,9.6 7.8,17.4 17.4,17.4 9.6,0 17.4,-7.8 17.4,-17.4 0,-3.6 -1.1,-6.9 -3,-9.7 L 85,49.7 c 2.9,2.3 6.6,3.6 10.6,3.6 8.5,0 15.6,-6.1 17.1,-14.2 h 20.4 c 0.5,2.5 1.5,4.8 2.9,6.8 l -31.6,31.2 c -2.6,-1.5 -5.6,-2.4 -8.8,-2.4 -9.6,0 -17.4,7.8 -17.4,17.4 0,9.6 7.8,17.4 17.4,17.4 8.5,0 15.6,-6.1 17.1,-14.2 H 147 v 35.1 c -8,1.5 -14.2,8.6 -14.2,17.1 0,8.5 6.1,15.6 14.2,17.1 v 22.1 c -7,1.3 -12.5,6.8 -13.8,13.8 h -20.4 c -1.5,-8 -8.6,-14.2 -17.1,-14.2 -4,0 -7.6,1.4 -10.6,3.6 L 51.9,157.2 c 1.3,-1.9 2.2,-4.1 2.6,-6.5 h 24.1 c 1.5,8 8.6,14.2 17.1,14.2 9.6,0 17.4,-7.8 17.4,-17.4 0,-9.6 -7.8,-17.4 -17.4,-17.4 -8.5,0 -15.6,6.1 -17.1,14.2 H 54.4 c -1.5,-8 -8.6,-14.2 -17.1,-14.2 -9.6,0 -17.4,7.8 -17.4,17.4 0,9.6 7.8,17.4 17.4,17.4 3.7,0 7.1,-1.2 9.9,-3.1 l 33.5,33 c -1.6,2.6 -2.5,5.7 -2.5,8.9 0,9.6 7.8,17.4 17.4,17.4 8.5,0 15.6,-6.1 17.1,-14.2 h 20.4 c 1.5,8 8.6,14.2 17.1,14.2 9.6,0 17.4,-7.8 17.4,-17.4 0,-3.5 -1.1,-6.8 -2.9,-9.5 l 33.7,-32.5 c 2.8,2 6.3,3.2 10,3.2 9.6,0 17.4,-7.8 17.4,-17.4 0,-9.6 -7.8,-17.4 -17.4,-17.4 z m -9.7,-43 c 1,-2 2.6,-3.6 4.5,-4.6 1.5,-0.8 3.3,-1.3 5.2,-1.3 6,0 10.9,4.9 10.9,10.9 0,6 -4.9,10.9 -10.9,10.9 -6,0 -10.9,-4.9 -10.9,-10.9 0,-1.8 0.4,-3.5 1.2,-5 z M 150.2,25 c 6,0 10.9,4.9 10.9,10.9 0,6 -4.9,10.9 -10.9,10.9 -1.7,0 -3.3,-0.4 -4.7,-1.1 -2,-1 -3.6,-2.5 -4.7,-4.4 -0.9,-1.6 -1.4,-3.4 -1.4,-5.4 -0.1,-6 4.8,-10.9 10.8,-10.9 z M 37.4,103 c -6,0 -10.9,-4.9 -10.9,-10.9 0,-6 4.9,-10.9 10.9,-10.9 6,0 10.9,4.9 10.9,10.9 0,6 -4.9,10.9 -10.9,10.9 z M 95.6,46.8 c -6,0 -10.9,-4.9 -10.9,-10.9 0,-6 4.9,-10.9 10.9,-10.9 6,0 10.9,4.9 10.9,10.9 0,6 -4.9,10.9 -10.9,10.9 z M 106,95.4 c -1.4,4.4 -5.5,7.7 -10.4,7.7 -6,0 -10.9,-4.9 -10.9,-10.9 0,-6 4.9,-10.9 10.9,-10.9 4.9,0 9,3.2 10.4,7.7 0.3,1 0.5,2.1 0.5,3.2 0,1.1 -0.2,2.1 -0.5,3.2 z m -10.4,41.2 c 6,0 10.9,4.9 10.9,10.9 0,6 -4.9,10.9 -10.9,10.9 -6,0 -10.9,-4.9 -10.9,-10.9 0,-6 4.9,-10.9 10.9,-10.9 z m -48.5,15.9 c -1,2 -2.6,3.6 -4.5,4.6 -1.5,0.8 -3.3,1.3 -5.2,1.3 -6,0 -10.9,-4.9 -10.9,-10.9 0,-6 4.9,-10.9 10.9,-10.9 6,0 10.9,4.9 10.9,10.9 0,1.8 -0.5,3.5 -1.2,5 z M 106,207 c -1.4,4.4 -5.5,7.7 -10.4,7.7 -6,0 -10.9,-4.9 -10.9,-10.9 0,-1.5 0.3,-2.9 0.8,-4.2 0.9,-2.1 2.3,-3.8 4.2,-5 1.7,-1.1 3.7,-1.7 5.9,-1.7 4.9,0 9,3.2 10.4,7.7 0.3,1 0.5,2.1 0.5,3.2 0,1.1 -0.2,2.1 -0.5,3.2 z m 33.3,-59.5 c 0,-4.9 3.2,-9 7.7,-10.4 1,-0.3 2.1,-0.5 3.2,-0.5 1.1,0 2.2,0.2 3.2,0.5 4.4,1.4 7.7,5.5 7.7,10.4 0,6 -4.9,10.9 -10.9,10.9 -6,0 -10.9,-4.9 -10.9,-10.9 z m 10.9,67.1 c -6,0 -10.9,-4.9 -10.9,-10.9 0,-6 4.9,-10.9 10.9,-10.9 6,0 10.9,4.9 10.9,10.9 0,6 -4.9,10.9 -10.9,10.9 z m 58.2,-56.2 c -6,0 -10.9,-4.9 -10.9,-10.9 0,-6 4.9,-10.9 10.9,-10.9 6,0 10.9,4.9 10.9,10.9 0,6 -4.9,10.9 -10.9,10.9 z"
   id="path327-8"
   style="fill:#ffffff;fill-opacity:1;filter:url(#filter1576)" /><g
   inkscape:groupmode="layer"
   id="layer1"
   inkscape:label="Logo"
   style="display:inline"
   sodipodi:insensitive="true"><g
     id="g325"
     transform="translate(-14,-192)">
	<path
   d="m 264.3,225.1 h 4.7 v 32.7 h -4.7 z"
   id="path249" />
	<path
   d="m 273.3,225.1 h 4.5 l 7.1,19.7 h 0.1 v -19.7 h 4.7 v 32.7 h -4.4 l -7.2,-19.7 H 278 v 19.7 h -4.7 z"
   id="path251" />
	<path
   d="m 297,229.5 h -5.4 v -4.4 h 15.5 v 4.4 h -5.4 v 28.3 H 297 Z"
   id="path253" />
	<path
   d="m 309.1,225.1 h 14 v 4.4 h -9.3 v 9.6 h 8.1 v 4.4 h -8.1 v 9.6 h 9.3 v 4.7 h -14 z"
   id="path255" />
	<path
   d="m 326.1,225.1 h 7.5 c 5.5,0 8.3,3.2 8.3,9.6 0,1.9 -0.3,3.5 -0.9,4.9 -0.6,1.4 -1.6,2.5 -3.1,3.3 l 5.1,14.9 h -5 l -4.4,-14 h -2.8 v 14 h -4.7 z m 4.7,14.6 h 2.7 c 0.8,0 1.5,-0.1 2,-0.3 0.5,-0.2 0.9,-0.6 1.1,-1 0.3,-0.4 0.4,-1 0.5,-1.6 0.1,-0.6 0.1,-1.4 0.1,-2.2 0,-0.8 0,-1.6 -0.1,-2.2 -0.1,-0.6 -0.3,-1.2 -0.6,-1.6 -0.3,-0.4 -0.7,-0.8 -1.2,-1 -0.5,-0.2 -1.2,-0.3 -2.1,-0.3 h -2.4 z"
   id="path257" />
	<path
   d="m 350.9,225.1 h 3.9 l 7.3,32.7 h -4.7 l -1.4,-7 h -6.4 l -1.4,7 h -4.7 z m 1.9,9.4 v 0 l -2.4,11.9 h 4.7 z"
   id="path259" />
	<path
   d="m 379.3,250.5 c 0,1 -0.2,2 -0.6,2.9 -0.4,0.9 -0.9,1.7 -1.6,2.4 -0.7,0.7 -1.5,1.2 -2.4,1.7 -0.9,0.4 -1.9,0.6 -2.9,0.6 -0.9,0 -1.8,-0.1 -2.7,-0.4 -0.9,-0.2 -1.7,-0.7 -2.5,-1.3 -0.7,-0.6 -1.3,-1.4 -1.8,-2.4 -0.5,-1 -0.7,-2.2 -0.7,-3.7 v -18 c 0,-1.1 0.2,-2.1 0.6,-3 0.4,-0.9 0.9,-1.7 1.6,-2.4 0.7,-0.7 1.5,-1.2 2.4,-1.6 0.9,-0.4 2,-0.6 3.1,-0.6 1.1,0 2.1,0.2 3,0.6 0.9,0.4 1.7,0.9 2.4,1.6 0.7,0.7 1.2,1.5 1.6,2.5 0.4,1 0.6,2 0.6,3.1 v 1.8 h -4.7 v -1.6 c 0,-0.9 -0.3,-1.7 -0.8,-2.4 -0.5,-0.7 -1.2,-1 -2.1,-1 -1.2,0 -1.9,0.4 -2.3,1.1 -0.4,0.7 -0.6,1.6 -0.6,2.7 v 16.7 c 0,1 0.2,1.7 0.6,2.4 0.4,0.6 1.2,1 2.2,1 0.3,0 0.6,-0.1 1,-0.2 0.4,-0.1 0.7,-0.3 1,-0.5 0.3,-0.2 0.5,-0.6 0.7,-1 0.2,-0.4 0.3,-1 0.3,-1.6 v -1.6 h 4.7 v 2.2 z"
   id="path261" />
	<path
   d="m 386.1,229.5 h -5.4 v -4.4 h 15.5 v 4.4 h -5.4 v 28.3 h -4.7 z"
   id="path263" />
	<path
   d="m 398.5,225.1 h 4.7 v 32.7 h -4.7 z"
   id="path265" />
	<path
   d="m 416.9,257.8 h -4.1 l -6.7,-32.7 h 5 l 3.7,22.8 h 0.1 l 3.8,-22.8 h 5 z"
   id="path267" />
	<path
   d="m 426.4,225.1 h 14 v 4.4 h -9.3 v 9.6 h 8.1 v 4.4 h -8.1 v 9.6 h 9.3 v 4.7 h -14 z"
   id="path269" />
	<path
   d="m 264.1,270.4 h 14 v 4.4 h -9.3 v 9.9 h 8.1 v 4.4 h -8.1 v 14 h -4.7 z"
   id="path271" />
	<path
   d="m 281.2,270.4 h 4.7 v 32.7 h -4.7 z"
   id="path273" />
	<path
   d="m 305.4,295.8 c 0,1 -0.2,2 -0.6,2.9 -0.4,0.9 -0.9,1.7 -1.6,2.4 -0.7,0.7 -1.5,1.2 -2.4,1.7 -0.9,0.4 -1.9,0.6 -2.9,0.6 -0.9,0 -1.8,-0.1 -2.7,-0.4 -0.9,-0.2 -1.7,-0.7 -2.5,-1.3 -0.7,-0.6 -1.3,-1.4 -1.8,-2.4 -0.5,-1 -0.7,-2.2 -0.7,-3.7 v -18 c 0,-1.1 0.2,-2.1 0.5,-3 0.4,-0.9 0.9,-1.7 1.6,-2.4 0.7,-0.7 1.5,-1.2 2.4,-1.6 0.9,-0.4 2,-0.6 3.1,-0.6 1.1,0 2.1,0.2 3,0.6 0.9,0.4 1.7,0.9 2.4,1.6 0.7,0.7 1.2,1.5 1.6,2.5 0.4,1 0.6,2 0.6,3.1 v 1.8 h -4.7 V 278 c 0,-0.9 -0.3,-1.7 -0.8,-2.4 -0.5,-0.7 -1.2,-1 -2.1,-1 -1.2,0 -1.9,0.4 -2.3,1.1 -0.4,0.7 -0.6,1.6 -0.6,2.7 v 16.7 c 0,1 0.2,1.7 0.6,2.4 0.4,0.6 1.2,1 2.2,1 0.3,0 0.6,-0.1 1,-0.2 0.4,-0.1 0.7,-0.3 1,-0.5 0.3,-0.2 0.5,-0.6 0.7,-1 0.2,-0.4 0.3,-1 0.3,-1.6 v -1.6 h 4.7 z"
   id="path275" />
	<path
   d="m 312.2,274.8 h -5.4 v -4.4 h 15.5 v 4.4 h -5.4 v 28.3 h -4.7 z"
   id="path277" />
	<path
   d="m 324.6,270.4 h 4.7 v 32.7 h -4.7 z"
   id="path279" />
	<path
   d="m 333.5,278.1 c 0,-1.3 0.2,-2.5 0.7,-3.5 0.5,-1 1.1,-1.8 1.8,-2.5 0.8,-0.7 1.6,-1.2 2.5,-1.5 0.9,-0.3 1.9,-0.5 2.8,-0.5 0.9,0 1.9,0.2 2.8,0.5 0.9,0.3 1.8,0.8 2.5,1.5 0.8,0.7 1.4,1.5 1.8,2.5 0.5,1 0.7,2.2 0.7,3.5 v 17.3 c 0,1.3 -0.2,2.5 -0.7,3.5 -0.5,1 -1.1,1.8 -1.8,2.5 -0.8,0.7 -1.6,1.2 -2.5,1.5 -0.9,0.3 -1.9,0.5 -2.8,0.5 -1,0 -1.9,-0.2 -2.8,-0.5 -0.9,-0.3 -1.8,-0.8 -2.5,-1.5 -0.8,-0.7 -1.4,-1.5 -1.8,-2.5 -0.5,-1 -0.7,-2.2 -0.7,-3.5 z m 4.7,17.3 c 0,1.1 0.3,2 0.9,2.5 0.6,0.5 1.4,0.8 2.2,0.8 0.9,0 1.6,-0.3 2.2,-0.8 0.6,-0.5 0.9,-1.4 0.9,-2.5 v -17.3 c 0,-1.1 -0.3,-2 -0.9,-2.5 -0.6,-0.5 -1.4,-0.8 -2.2,-0.8 -0.9,0 -1.6,0.3 -2.2,0.8 -0.6,0.5 -0.9,1.4 -0.9,2.5 z"
   id="path281" />
	<path
   d="m 353.2,270.4 h 4.5 l 7.1,19.7 h 0.1 v -19.7 h 4.7 v 32.7 h -4.4 L 358,283.4 h -0.1 v 19.7 h -4.7 z"
   id="path283" />
	<path
   d="m 267.2,320.1 h -5.4 v -4.4 h 15.5 v 4.4 h -5.4 v 28.3 h -4.7 z"
   id="path285" />
	<path
   d="m 279.4,315.7 h 14 v 4.4 H 284 v 9.6 h 8.1 v 4.4 H 284 v 9.6 h 9.3 v 4.7 h -14 v -32.7 z"
   id="path287" />
	<path
   d="m 311.2,341.1 c 0,1 -0.2,2 -0.6,2.9 -0.4,0.9 -0.9,1.7 -1.6,2.4 -0.7,0.7 -1.5,1.2 -2.4,1.7 -0.9,0.4 -1.9,0.6 -2.9,0.6 -0.9,0 -1.8,-0.1 -2.7,-0.4 -0.9,-0.2 -1.7,-0.7 -2.5,-1.3 -0.7,-0.6 -1.3,-1.4 -1.8,-2.4 -0.5,-1 -0.7,-2.2 -0.7,-3.7 v -18 c 0,-1.1 0.2,-2.1 0.6,-3 0.4,-0.9 0.9,-1.7 1.6,-2.4 0.7,-0.7 1.5,-1.2 2.4,-1.6 0.9,-0.4 2,-0.6 3.1,-0.6 1.1,0 2.1,0.2 3,0.6 0.9,0.4 1.7,0.9 2.4,1.6 0.7,0.7 1.2,1.5 1.6,2.5 0.4,1 0.6,2 0.6,3.1 v 1.8 h -4.7 v -1.6 c 0,-0.9 -0.3,-1.7 -0.8,-2.4 -0.5,-0.7 -1.2,-1 -2.1,-1 -1.2,0 -1.9,0.4 -2.3,1.1 -0.4,0.7 -0.6,1.6 -0.6,2.7 v 16.7 c 0,0.9 0.2,1.7 0.6,2.4 0.4,0.6 1.2,1 2.2,1 0.3,0 0.6,-0.1 1,-0.2 0.4,-0.1 0.7,-0.3 1,-0.5 0.3,-0.2 0.5,-0.6 0.7,-1 0.2,-0.4 0.3,-1 0.3,-1.6 v -1.6 h 4.7 v 2.2 z"
   id="path289" />
	<path
   d="m 315,315.7 h 4.7 v 14 h 5.8 v -14 h 4.7 v 32.7 h -4.7 v -14.6 h -5.8 v 14.6 H 315 Z"
   id="path291" />
	<path
   d="m 334.4,315.7 h 4.5 l 7.1,19.7 h 0.1 v -19.7 h 4.7 v 32.7 h -4.4 l -7.2,-19.7 h -0.1 v 19.7 h -4.7 z"
   id="path293" />
	<path
   d="m 354.7,323.4 c 0,-1.3 0.2,-2.5 0.7,-3.5 0.5,-1 1.1,-1.8 1.8,-2.5 0.7,-0.7 1.6,-1.2 2.5,-1.5 0.9,-0.3 1.9,-0.5 2.8,-0.5 0.9,0 1.9,0.2 2.8,0.5 0.9,0.3 1.8,0.8 2.5,1.5 0.7,0.7 1.4,1.5 1.8,2.5 0.5,1 0.7,2.2 0.7,3.5 v 17.3 c 0,1.3 -0.2,2.5 -0.7,3.5 -0.5,1 -1.1,1.8 -1.8,2.5 -0.7,0.7 -1.6,1.2 -2.5,1.5 -0.9,0.3 -1.9,0.5 -2.8,0.5 -1,0 -1.9,-0.2 -2.8,-0.5 -0.9,-0.3 -1.8,-0.8 -2.5,-1.5 -0.7,-0.7 -1.4,-1.5 -1.8,-2.5 -0.5,-1 -0.7,-2.2 -0.7,-3.5 z m 4.7,17.3 c 0,1.1 0.3,2 0.9,2.5 0.6,0.5 1.4,0.8 2.2,0.8 0.9,0 1.6,-0.3 2.2,-0.8 0.6,-0.5 0.9,-1.4 0.9,-2.5 v -17.3 c 0,-1.1 -0.3,-2 -0.9,-2.5 -0.6,-0.5 -1.4,-0.8 -2.2,-0.8 -0.9,0 -1.6,0.3 -2.2,0.8 -0.6,0.5 -0.9,1.4 -0.9,2.5 z"
   id="path295" />
	<path
   d="m 374.6,315.7 h 4.7 v 28 h 9.3 v 4.7 h -14 z"
   id="path297" />
	<path
   d="m 391.3,323.4 c 0,-1.3 0.2,-2.5 0.7,-3.5 0.5,-1 1.1,-1.8 1.8,-2.5 0.7,-0.7 1.6,-1.2 2.5,-1.5 0.9,-0.3 1.9,-0.5 2.8,-0.5 0.9,0 1.9,0.2 2.8,0.5 0.9,0.3 1.8,0.8 2.5,1.5 0.7,0.7 1.4,1.5 1.8,2.5 0.5,1 0.7,2.2 0.7,3.5 v 17.3 c 0,1.3 -0.2,2.5 -0.7,3.5 -0.5,1 -1.1,1.8 -1.8,2.5 -0.8,0.7 -1.6,1.2 -2.5,1.5 -0.9,0.3 -1.9,0.5 -2.8,0.5 -0.9,0 -1.9,-0.2 -2.8,-0.5 -0.9,-0.3 -1.8,-0.8 -2.5,-1.5 -0.7,-0.7 -1.4,-1.5 -1.8,-2.5 -0.5,-1 -0.7,-2.2 -0.7,-3.5 z m 4.7,17.3 c 0,1.1 0.3,2 0.9,2.5 0.6,0.5 1.4,0.8 2.2,0.8 0.9,0 1.6,-0.3 2.2,-0.8 0.6,-0.5 0.9,-1.4 0.9,-2.5 v -17.3 c 0,-1.1 -0.3,-2 -0.9,-2.5 -0.6,-0.5 -1.4,-0.8 -2.2,-0.8 -0.9,0 -1.6,0.3 -2.2,0.8 -0.6,0.5 -0.9,1.4 -0.9,2.5 z"
   id="path299" />
	<path
   d="m 410.9,323.4 c 0,-1.3 0.2,-2.5 0.7,-3.5 0.5,-1 1.1,-1.8 1.8,-2.5 0.7,-0.7 1.6,-1.2 2.5,-1.5 0.9,-0.3 1.9,-0.5 2.8,-0.5 0.9,0 1.9,0.2 2.8,0.5 0.9,0.3 1.8,0.8 2.5,1.5 0.8,0.7 1.4,1.5 1.8,2.5 0.5,1 0.7,2.2 0.7,3.5 v 1.7 h -4.7 v -1.7 c 0,-1.1 -0.3,-2 -0.9,-2.5 -0.6,-0.5 -1.4,-0.8 -2.2,-0.8 -0.9,0 -1.6,0.3 -2.2,0.8 -0.6,0.5 -0.9,1.4 -0.9,2.5 v 17.3 c 0,1.1 0.3,2 0.9,2.5 0.6,0.5 1.4,0.8 2.2,0.8 0.9,0 1.6,-0.3 2.2,-0.8 0.6,-0.5 0.9,-1.4 0.9,-2.5 v -6.2 h -3.7 v -4.1 h 8.4 v 10.3 c 0,1.3 -0.2,2.5 -0.7,3.5 -0.5,1 -1.1,1.8 -1.8,2.5 -0.7,0.7 -1.6,1.2 -2.5,1.5 -0.9,0.3 -1.9,0.5 -2.8,0.5 -1,0 -1.9,-0.2 -2.8,-0.5 -0.9,-0.3 -1.8,-0.8 -2.5,-1.5 -0.7,-0.7 -1.4,-1.5 -1.8,-2.5 -0.5,-1 -0.7,-2.2 -0.7,-3.5 z"
   id="path301" />
	<path
   d="m 435.1,334.6 -6.4,-18.9 h 5 l 3.8,13 h 0.1 l 3.8,-13 h 5 l -6.4,18.9 v 13.8 h -4.7 v -13.8 z"
   id="path303" />
	<path
   d="m 264.1,361 h 14 v 4.4 h -9.3 v 9.9 h 8.1 v 4.4 h -8.1 v 14 h -4.7 z"
   id="path305" />
	<path
   d="m 280.8,368.7 c 0,-1.3 0.2,-2.5 0.7,-3.5 0.5,-1 1.1,-1.8 1.8,-2.5 0.7,-0.7 1.6,-1.2 2.5,-1.5 0.9,-0.3 1.9,-0.5 2.8,-0.5 0.9,0 1.9,0.2 2.8,0.5 0.9,0.3 1.8,0.8 2.5,1.5 0.7,0.7 1.4,1.5 1.8,2.5 0.5,1 0.7,2.2 0.7,3.5 V 386 c 0,1.3 -0.2,2.5 -0.7,3.5 -0.5,1 -1.1,1.8 -1.8,2.5 -0.8,0.7 -1.6,1.2 -2.5,1.5 -0.9,0.3 -1.9,0.5 -2.8,0.5 -0.9,0 -1.9,-0.2 -2.8,-0.5 -0.9,-0.3 -1.8,-0.8 -2.5,-1.5 -0.7,-0.7 -1.4,-1.5 -1.8,-2.5 -0.5,-1 -0.7,-2.2 -0.7,-3.5 z m 4.7,17.3 c 0,1.1 0.3,2 0.9,2.5 0.6,0.5 1.4,0.8 2.2,0.8 0.9,0 1.6,-0.3 2.2,-0.8 0.6,-0.5 0.9,-1.4 0.9,-2.5 v -17.3 c 0,-1.1 -0.3,-2 -0.9,-2.5 -0.6,-0.5 -1.4,-0.8 -2.2,-0.8 -0.9,0 -1.6,0.3 -2.2,0.8 -0.6,0.5 -0.9,1.4 -0.9,2.5 z"
   id="path307" />
	<path
   d="m 315.8,386.3 c 0,1.1 -0.2,2.1 -0.6,3 -0.4,0.9 -0.9,1.7 -1.6,2.4 -0.7,0.7 -1.5,1.2 -2.4,1.6 -0.9,0.4 -1.9,0.6 -2.9,0.6 -1,0 -2,-0.2 -2.9,-0.6 -0.9,-0.4 -1.7,-0.9 -2.4,-1.6 -0.7,-0.7 -1.2,-1.5 -1.6,-2.4 -0.4,-0.9 -0.6,-1.9 -0.6,-3 V 361 h 4.7 v 24.9 c 0,1.2 0.3,2 0.8,2.6 0.6,0.6 1.2,0.8 2.1,0.8 0.8,0 1.5,-0.3 2.1,-0.8 0.6,-0.6 0.8,-1.4 0.8,-2.6 V 361 h 4.7 v 25.3 z"
   id="path309" />
	<path
   d="m 320.1,361 h 4.5 l 7.1,19.7 h 0.1 V 361 h 4.7 v 32.7 H 332 L 324.8,374 h -0.1 v 19.7 H 320 V 361 Z"
   id="path311" />
	<path
   d="m 340.6,361 h 6.9 c 2.7,0 4.7,0.7 6.1,2.2 1.4,1.5 2.1,3.6 2.1,6.2 v 15.3 c 0,3.1 -0.7,5.3 -2.2,6.8 -1.5,1.5 -3.6,2.2 -6.4,2.2 h -6.5 z m 4.7,28.3 h 2.2 c 1.3,0 2.3,-0.3 2.8,-1 0.5,-0.7 0.8,-1.7 0.8,-3.1 v -15.8 c 0,-1.3 -0.3,-2.3 -0.8,-3 -0.5,-0.7 -1.5,-1.1 -2.8,-1.1 h -2.2 z"
   id="path313" />
	<path
   d="m 364.8,361 h 3.9 l 7.3,32.7 h -4.7 l -1.4,-7 h -6.4 l -1.4,7 h -4.7 z m 2,9.4 v 0 l -2.4,11.9 h 4.7 z"
   id="path315" />
	<path
   d="m 378.9,365.4 h -5.4 V 361 H 389 v 4.4 h -5.4 v 28.3 h -4.7 z"
   id="path317" />
	<path
   d="m 391.2,361 h 4.7 v 32.7 h -4.7 z"
   id="path319" />
	<path
   d="m 400.2,368.7 c 0,-1.3 0.2,-2.5 0.7,-3.5 0.5,-1 1.1,-1.8 1.8,-2.5 0.7,-0.7 1.6,-1.2 2.5,-1.5 0.9,-0.3 1.9,-0.5 2.8,-0.5 0.9,0 1.9,0.2 2.8,0.5 0.9,0.3 1.8,0.8 2.5,1.5 0.7,0.7 1.4,1.5 1.8,2.5 0.5,1 0.7,2.2 0.7,3.5 V 386 c 0,1.3 -0.2,2.5 -0.7,3.5 -0.5,1 -1.1,1.8 -1.8,2.5 -0.8,0.7 -1.6,1.2 -2.5,1.5 -0.9,0.3 -1.9,0.5 -2.8,0.5 -0.9,0 -1.9,-0.2 -2.8,-0.5 -0.9,-0.3 -1.8,-0.8 -2.5,-1.5 -0.7,-0.7 -1.4,-1.5 -1.8,-2.5 -0.5,-1 -0.7,-2.2 -0.7,-3.5 z m 4.6,17.3 c 0,1.1 0.3,2 0.9,2.5 0.6,0.5 1.4,0.8 2.2,0.8 0.9,0 1.6,-0.3 2.2,-0.8 0.6,-0.5 0.9,-1.4 0.9,-2.5 v -17.3 c 0,-1.1 -0.3,-2 -0.9,-2.5 -0.6,-0.5 -1.4,-0.8 -2.2,-0.8 -0.9,0 -1.6,0.3 -2.2,0.8 -0.6,0.5 -0.9,1.4 -0.9,2.5 z"
   id="path321" />
	<path
   d="m 419.8,361 h 4.5 l 7.1,19.7 h 0.1 V 361 h 4.7 v 32.7 h -4.4 L 424.6,374 h -0.1 v 19.7 h -4.7 z"
   id="path323" />
</g><path
     d="m 208.4,130.1 c -9.6,0 -17.4,7.8 -17.4,17.4 0,3.5 1.1,6.8 2.9,9.5 l -33.7,32.5 c -2,-1.4 -4.3,-2.4 -6.8,-2.9 v -22.1 c 8,-1.5 14.2,-8.6 14.2,-17.1 0,-8.5 -6.1,-15.6 -14.2,-17.1 V 92 c 0,-1.8 -1.4,-3.2 -3.2,-3.2 H 112.7 C 112.2,86 111,83.5 109.3,81.3 l 31.4,-31 c 2.7,1.8 6,2.9 9.5,2.9 4,0 7.6,-1.4 10.6,-3.6 L 194,82.4 c -1.9,2.8 -3,6.1 -3,9.7 0,9.6 7.8,17.4 17.4,17.4 9.6,0 17.4,-7.8 17.4,-17.4 0,-9.6 -7.8,-17.4 -17.4,-17.4 -3.7,0 -7.1,1.2 -9.9,3.1 L 165,44.8 c 1.6,-2.6 2.5,-5.7 2.5,-8.9 0,-9.6 -7.8,-17.4 -17.4,-17.4 -8.5,0 -15.6,6.1 -17.1,14.2 h -20.4 c -1.5,-8 -8.6,-14.2 -17.1,-14.2 -9.6,0 -17.4,7.8 -17.4,17.4 0,3.3 0.9,6.3 2.5,8.9 l -33.5,33 c -2.8,-1.9 -6.2,-3.1 -9.9,-3.1 -9.6,0 -17.4,7.8 -17.4,17.4 0,9.6 7.8,17.4 17.4,17.4 9.6,0 17.4,-7.8 17.4,-17.4 0,-3.6 -1.1,-6.9 -3,-9.7 L 85,49.7 c 2.9,2.3 6.6,3.6 10.6,3.6 8.5,0 15.6,-6.1 17.1,-14.2 h 20.4 c 0.5,2.5 1.5,4.8 2.9,6.8 l -31.6,31.2 c -2.6,-1.5 -5.6,-2.4 -8.8,-2.4 -9.6,0 -17.4,7.8 -17.4,17.4 0,9.6 7.8,17.4 17.4,17.4 8.5,0 15.6,-6.1 17.1,-14.2 H 147 v 35.1 c -8,1.5 -14.2,8.6 -14.2,17.1 0,8.5 6.1,15.6 14.2,17.1 v 22.1 c -7,1.3 -12.5,6.8 -13.8,13.8 h -20.4 c -1.5,-8 -8.6,-14.2 -17.1,-14.2 -4,0 -7.6,1.4 -10.6,3.6 L 51.9,157.2 c 1.3,-1.9 2.2,-4.1 2.6,-6.5 h 24.1 c 1.5,8 8.6,14.2 17.1,14.2 9.6,0 17.4,-7.8 17.4,-17.4 0,-9.6 -7.8,-17.4 -17.4,-17.4 -8.5,0 -15.6,6.1 -17.1,14.2 H 54.4 c -1.5,-8 -8.6,-14.2 -17.1,-14.2 -9.6,0 -17.4,7.8 -17.4,17.4 0,9.6 7.8,17.4 17.4,17.4 3.7,0 7.1,-1.2 9.9,-3.1 l 33.5,33 c -1.6,2.6 -2.5,5.7 -2.5,8.9 0,9.6 7.8,17.4 17.4,17.4 8.5,0 15.6,-6.1 17.1,-14.2 h 20.4 c 1.5,8 8.6,14.2 17.1,14.2 9.6,0 17.4,-7.8 17.4,-17.4 0,-3.5 -1.1,-6.8 -2.9,-9.5 l 33.7,-32.5 c 2.8,2 6.3,3.2 10,3.2 9.6,0 17.4,-7.8 17.4,-17.4 0,-9.6 -7.8,-17.4 -17.4,-17.4 z m -9.7,-43 c 1,-2 2.6,-3.6 4.5,-4.6 1.5,-0.8 3.3,-1.3 5.2,-1.3 6,0 10.9,4.9 10.9,10.9 0,6 -4.9,10.9 -10.9,10.9 -6,0 -10.9,-4.9 -10.9,-10.9 0,-1.8 0.4,-3.5 1.2,-5 z M 150.2,25 c 6,0 10.9,4.9 10.9,10.9 0,6 -4.9,10.9 -10.9,10.9 -1.7,0 -3.3,-0.4 -4.7,-1.1 -2,-1 -3.6,-2.5 -4.7,-4.4 -0.9,-1.6 -1.4,-3.4 -1.4,-5.4 -0.1,-6 4.8,-10.9 10.8,-10.9 z M 37.4,103 c -6,0 -10.9,-4.9 -10.9,-10.9 0,-6 4.9,-10.9 10.9,-10.9 6,0 10.9,4.9 10.9,10.9 0,6 -4.9,10.9 -10.9,10.9 z M 95.6,46.8 c -6,0 -10.9,-4.9 -10.9,-10.9 0,-6 4.9,-10.9 10.9,-10.9 6,0 10.9,4.9 10.9,10.9 0,6 -4.9,10.9 -10.9,10.9 z M 106,95.4 c -1.4,4.4 -5.5,7.7 -10.4,7.7 -6,0 -10.9,-4.9 -10.9,-10.9 0,-6 4.9,-10.9 10.9,-10.9 4.9,0 9,3.2 10.4,7.7 0.3,1 0.5,2.1 0.5,3.2 0,1.1 -0.2,2.1 -0.5,3.2 z m -10.4,41.2 c 6,0 10.9,4.9 10.9,10.9 0,6 -4.9,10.9 -10.9,10.9 -6,0 -10.9,-4.9 -10.9,-10.9 0,-6 4.9,-10.9 10.9,-10.9 z m -48.5,15.9 c -1,2 -2.6,3.6 -4.5,4.6 -1.5,0.8 -3.3,1.3 -5.2,1.3 -6,0 -10.9,-4.9 -10.9,-10.9 0,-6 4.9,-10.9 10.9,-10.9 6,0 10.9,4.9 10.9,10.9 0,1.8 -0.5,3.5 -1.2,5 z M 106,207 c -1.4,4.4 -5.5,7.7 -10.4,7.7 -6,0 -10.9,-4.9 -10.9,-10.9 0,-1.5 0.3,-2.9 0.8,-4.2 0.9,-2.1 2.3,-3.8 4.2,-5 1.7,-1.1 3.7,-1.7 5.9,-1.7 4.9,0 9,3.2 10.4,7.7 0.3,1 0.5,2.1 0.5,3.2 0,1.1 -0.2,2.1 -0.5,3.2 z m 33.3,-59.5 c 0,-4.9 3.2,-9 7.7,-10.4 1,-0.3 2.1,-0.5 3.2,-0.5 1.1,0 2.2,0.2 3.2,0.5 4.4,1.4 7.7,5.5 7.7,10.4 0,6 -4.9,10.9 -10.9,10.9 -6,0 -10.9,-4.9 -10.9,-10.9 z m 10.9,67.1 c -6,0 -10.9,-4.9 -10.9,-10.9 0,-6 4.9,-10.9 10.9,-10.9 6,0 10.9,4.9 10.9,10.9 0,6 -4.9,10.9 -10.9,10.9 z m 58.2,-56.2 c -6,0 -10.9,-4.9 -10.9,-10.9 0,-6 4.9,-10.9 10.9,-10.9 6,0 10.9,4.9 10.9,10.9 0,6 -4.9,10.9 -10.9,10.9 z"
     id="path327" /></g></svg>
