<?xml version="1.0" encoding="UTF-8" standalone="no"?>
<!-- Generator: Adobe Illustrator 18.1.1, SVG Export Plug-In . SVG Version: 6.00 Build 0)  -->

<svg
   xmlns:dc="http://purl.org/dc/elements/1.1/"
   xmlns:cc="http://creativecommons.org/ns#"
   xmlns:rdf="http://www.w3.org/1999/02/22-rdf-syntax-ns#"
   xmlns:svg="http://www.w3.org/2000/svg"
   xmlns="http://www.w3.org/2000/svg"
   xmlns:sodipodi="http://sodipodi.sourceforge.net/DTD/sodipodi-0.dtd"
   xmlns:inkscape="http://www.inkscape.org/namespaces/inkscape"
   version="1.1"
   id="Layer_1"
   x="0px"
   y="0px"
   viewBox="0 0 412.60001 202.60001"
   enable-background="new 0 0 480 640"
   xml:space="preserve"
   inkscape:version="0.91+devel+osxmenu r12922"
   sodipodi:docname="logo.svg"
   width="412.60001"
   height="202.60001"><metadata
     id="metadata4016"><rdf:RDF><cc:Work
         rdf:about=""><dc:format>image/svg+xml</dc:format><dc:type
           rdf:resource="http://purl.org/dc/dcmitype/StillImage" /><dc:title></dc:title></cc:Work></rdf:RDF></metadata><defs
     id="defs4014" /><sodipodi:namedview
     pagecolor="#ffffff"
     bordercolor="#666666"
     borderopacity="1"
     objecttolerance="10"
     gridtolerance="10"
     guidetolerance="10"
     inkscape:pageopacity="0"
     inkscape:pageshadow="2"
     inkscape:window-width="640"
     inkscape:window-height="480"
     id="namedview4012"
     showgrid="false"
     fit-margin-top="0"
     fit-margin-left="0"
     fit-margin-right="0"
     fit-margin-bottom="0"
     inkscape:zoom="0.9703125"
     inkscape:cx="41.30467"
     inkscape:cy="82.794042"
     inkscape:current-layer="Layer_1" /><g
     id="g3932"
     transform="translate(-33.8,-210.5)"
     style="fill:#000000;fill-opacity:1"><path
       d="m 264.3,225.1 4.7,0 0,32.7 -4.7,0 0,-32.7 z"
       id="path3934"
       inkscape:connector-curvature="0"
       style="fill:#000000;fill-opacity:1" /><path
       d="m 273.3,225.1 4.5,0 7.1,19.7 0.1,0 0,-19.7 4.7,0 0,32.7 -4.4,0 -7.2,-19.7 -0.1,0 0,19.7 -4.7,0 0,-32.7 z"
       id="path3936"
       inkscape:connector-curvature="0"
       style="fill:#000000;fill-opacity:1" /><path
       d="m 297,229.5 -5.4,0 0,-4.4 15.5,0 0,4.4 -5.4,0 0,28.3 -4.7,0 0,-28.3 z"
       id="path3938"
       inkscape:connector-curvature="0"
       style="fill:#000000;fill-opacity:1" /><path
       d="m 309.1,225.1 14,0 0,4.4 -9.3,0 0,9.6 8.1,0 0,4.4 -8.1,0 0,9.6 9.3,0 0,4.7 -14,0 0,-32.7 z"
       id="path3940"
       inkscape:connector-curvature="0"
       style="fill:#000000;fill-opacity:1" /><path
       d="m 326.1,225.1 7.5,0 c 5.5,0 8.3,3.2 8.3,9.6 0,1.9 -0.3,3.5 -0.9,4.9 -0.6,1.4 -1.6,2.5 -3.1,3.3 l 5.1,14.9 -5,0 -4.4,-14 -2.8,0 0,14 -4.7,0 0,-32.7 z m 4.7,14.6 2.7,0 c 0.8,0 1.5,-0.1 2,-0.3 0.5,-0.2 0.9,-0.6 1.1,-1 0.3,-0.4 0.4,-1 0.5,-1.6 0.1,-0.6 0.1,-1.4 0.1,-2.2 0,-0.8 0,-1.6 -0.1,-2.2 -0.1,-0.6 -0.3,-1.2 -0.6,-1.6 -0.3,-0.4 -0.7,-0.8 -1.2,-1 -0.5,-0.2 -1.2,-0.3 -2.1,-0.3 l -2.4,0 0,10.2 z"
       id="path3942"
       inkscape:connector-curvature="0"
       style="fill:#000000;fill-opacity:1" /><path
       d="m 350.9,225.1 3.9,0 7.3,32.7 -4.7,0 -1.4,-7 -6.4,0 -1.4,7 -4.7,0 7.4,-32.7 z m 1.9,9.4 0,0 -2.4,11.9 4.7,0 -2.3,-11.9 z"
       id="path3944"
       inkscape:connector-curvature="0"
       style="fill:#000000;fill-opacity:1" /><path
       d="m 379.3,250.5 c 0,1 -0.2,2 -0.6,2.9 -0.4,0.9 -0.9,1.7 -1.6,2.4 -0.7,0.7 -1.5,1.2 -2.4,1.7 -0.9,0.4 -1.9,0.6 -2.9,0.6 -0.9,0 -1.8,-0.1 -2.7,-0.4 -0.9,-0.2 -1.7,-0.7 -2.5,-1.3 -0.7,-0.6 -1.3,-1.4 -1.8,-2.4 -0.5,-1 -0.7,-2.2 -0.7,-3.7 l 0,-18 c 0,-1.1 0.2,-2.1 0.6,-3 0.4,-0.9 0.9,-1.7 1.6,-2.4 0.7,-0.7 1.5,-1.2 2.4,-1.6 0.9,-0.4 2,-0.6 3.1,-0.6 1.1,0 2.1,0.2 3,0.6 0.9,0.4 1.7,0.9 2.4,1.6 0.7,0.7 1.2,1.5 1.6,2.5 0.4,1 0.6,2 0.6,3.1 l 0,1.8 -4.7,0 0,-1.6 c 0,-0.9 -0.3,-1.7 -0.8,-2.4 -0.5,-0.7 -1.2,-1 -2.1,-1 -1.2,0 -1.9,0.4 -2.3,1.1 -0.4,0.7 -0.6,1.6 -0.6,2.7 l 0,16.7 c 0,1 0.2,1.7 0.6,2.4 0.4,0.6 1.2,1 2.2,1 0.3,0 0.6,-0.1 1,-0.2 0.4,-0.1 0.7,-0.3 1,-0.5 0.3,-0.2 0.5,-0.6 0.7,-1 0.2,-0.4 0.3,-1 0.3,-1.6 l 0,-1.6 4.7,0 0,2.2 z"
       id="path3946"
       inkscape:connector-curvature="0"
       style="fill:#000000;fill-opacity:1" /><path
       d="m 386.1,229.5 -5.4,0 0,-4.4 15.5,0 0,4.4 -5.4,0 0,28.3 -4.7,0 0,-28.3 z"
       id="path3948"
       inkscape:connector-curvature="0"
       style="fill:#000000;fill-opacity:1" /><path
       d="m 398.5,225.1 4.7,0 0,32.7 -4.7,0 0,-32.7 z"
       id="path3950"
       inkscape:connector-curvature="0"
       style="fill:#000000;fill-opacity:1" /><path
       d="m 416.9,257.8 -4.1,0 -6.7,-32.7 5,0 3.7,22.8 0.1,0 3.8,-22.8 5,0 -6.8,32.7 z"
       id="path3952"
       inkscape:connector-curvature="0"
       style="fill:#000000;fill-opacity:1" /><path
       d="m 426.4,225.1 14,0 0,4.4 -9.3,0 0,9.6 8.1,0 0,4.4 -8.1,0 0,9.6 9.3,0 0,4.7 -14,0 0,-32.7 z"
       id="path3954"
       inkscape:connector-curvature="0"
       style="fill:#000000;fill-opacity:1" /><path
       d="m 264.1,270.4 14,0 0,4.4 -9.3,0 0,9.9 8.1,0 0,4.4 -8.1,0 0,14 -4.7,0 0,-32.7 z"
       id="path3956"
       inkscape:connector-curvature="0"
       style="fill:#000000;fill-opacity:1" /><path
       d="m 281.2,270.4 4.7,0 0,32.7 -4.7,0 0,-32.7 z"
       id="path3958"
       inkscape:connector-curvature="0"
       style="fill:#000000;fill-opacity:1" /><path
       d="m 305.4,295.8 c 0,1 -0.2,2 -0.6,2.9 -0.4,0.9 -0.9,1.7 -1.6,2.4 -0.7,0.7 -1.5,1.2 -2.4,1.7 -0.9,0.4 -1.9,0.6 -2.9,0.6 -0.9,0 -1.8,-0.1 -2.7,-0.4 -0.9,-0.2 -1.7,-0.7 -2.5,-1.3 -0.7,-0.6 -1.3,-1.4 -1.8,-2.4 -0.5,-1 -0.7,-2.2 -0.7,-3.7 l 0,-18 c 0,-1.1 0.2,-2.1 0.5,-3 0.4,-0.9 0.9,-1.7 1.6,-2.4 0.7,-0.7 1.5,-1.2 2.4,-1.6 0.9,-0.4 2,-0.6 3.1,-0.6 1.1,0 2.1,0.2 3,0.6 0.9,0.4 1.7,0.9 2.4,1.6 0.7,0.7 1.2,1.5 1.6,2.5 0.4,1 0.6,2 0.6,3.1 l 0,1.8 -4.7,0 0,-1.6 c 0,-0.9 -0.3,-1.7 -0.8,-2.4 -0.5,-0.7 -1.2,-1 -2.1,-1 -1.2,0 -1.9,0.4 -2.3,1.1 -0.4,0.7 -0.6,1.6 -0.6,2.7 l 0,16.7 c 0,1 0.2,1.7 0.6,2.4 0.4,0.6 1.2,1 2.2,1 0.3,0 0.6,-0.1 1,-0.2 0.4,-0.1 0.7,-0.3 1,-0.5 0.3,-0.2 0.5,-0.6 0.7,-1 0.2,-0.4 0.3,-1 0.3,-1.6 l 0,-1.6 4.7,0 0,2.2 z"
       id="path3960"
       inkscape:connector-curvature="0"
       style="fill:#000000;fill-opacity:1" /><path
       d="m 312.2,274.8 -5.4,0 0,-4.4 15.5,0 0,4.4 -5.4,0 0,28.3 -4.7,0 0,-28.3 z"
       id="path3962"
       inkscape:connector-curvature="0"
       style="fill:#000000;fill-opacity:1" /><path
       d="m 324.6,270.4 4.7,0 0,32.7 -4.7,0 0,-32.7 z"
       id="path3964"
       inkscape:connector-curvature="0"
       style="fill:#000000;fill-opacity:1" /><path
       d="m 333.5,278.1 c 0,-1.3 0.2,-2.5 0.7,-3.5 0.5,-1 1.1,-1.8 1.8,-2.5 0.8,-0.7 1.6,-1.2 2.5,-1.5 0.9,-0.3 1.9,-0.5 2.8,-0.5 0.9,0 1.9,0.2 2.8,0.5 0.9,0.3 1.8,0.8 2.5,1.5 0.8,0.7 1.4,1.5 1.8,2.5 0.5,1 0.7,2.2 0.7,3.5 l 0,17.3 c 0,1.3 -0.2,2.5 -0.7,3.5 -0.5,1 -1.1,1.8 -1.8,2.5 -0.8,0.7 -1.6,1.2 -2.5,1.5 -0.9,0.3 -1.9,0.5 -2.8,0.5 -1,0 -1.9,-0.2 -2.8,-0.5 -0.9,-0.3 -1.8,-0.8 -2.5,-1.5 -0.8,-0.7 -1.4,-1.5 -1.8,-2.5 -0.5,-1 -0.7,-2.2 -0.7,-3.5 l 0,-17.3 z m 4.7,17.3 c 0,1.1 0.3,2 0.9,2.5 0.6,0.5 1.4,0.8 2.2,0.8 0.9,0 1.6,-0.3 2.2,-0.8 0.6,-0.5 0.9,-1.4 0.9,-2.5 l 0,-17.3 c 0,-1.1 -0.3,-2 -0.9,-2.5 -0.6,-0.5 -1.4,-0.8 -2.2,-0.8 -0.9,0 -1.6,0.3 -2.2,0.8 -0.6,0.5 -0.9,1.4 -0.9,2.5 l 0,17.3 z"
       id="path3966"
       inkscape:connector-curvature="0"
       style="fill:#000000;fill-opacity:1" /><path
       d="m 353.2,270.4 4.5,0 7.1,19.7 0.1,0 0,-19.7 4.7,0 0,32.7 -4.4,0 -7.2,-19.7 -0.1,0 0,19.7 -4.7,0 0,-32.7 z"
       id="path3968"
       inkscape:connector-curvature="0"
       style="fill:#000000;fill-opacity:1" /><path
       d="m 267.2,320.1 -5.4,0 0,-4.4 15.5,0 0,4.4 -5.4,0 0,28.3 -4.7,0 0,-28.3 z"
       id="path3970"
       inkscape:connector-curvature="0"
       style="fill:#000000;fill-opacity:1" /><path
       d="m 279.4,315.7 14,0 0,4.4 -9.4,0 0,9.6 8.1,0 0,4.4 -8.1,0 0,9.6 9.3,0 0,4.7 -14,0 0,-32.7 z"
       id="path3972"
       inkscape:connector-curvature="0"
       style="fill:#000000;fill-opacity:1" /><path
       d="m 311.2,341.1 c 0,1 -0.2,2 -0.6,2.9 -0.4,0.9 -0.9,1.7 -1.6,2.4 -0.7,0.7 -1.5,1.2 -2.4,1.7 -0.9,0.4 -1.9,0.6 -2.9,0.6 -0.9,0 -1.8,-0.1 -2.7,-0.4 -0.9,-0.2 -1.7,-0.7 -2.5,-1.3 -0.7,-0.6 -1.3,-1.4 -1.8,-2.4 -0.5,-1 -0.7,-2.2 -0.7,-3.7 l 0,-18 c 0,-1.1 0.2,-2.1 0.6,-3 0.4,-0.9 0.9,-1.7 1.6,-2.4 0.7,-0.7 1.5,-1.2 2.4,-1.6 0.9,-0.4 2,-0.6 3.1,-0.6 1.1,0 2.1,0.2 3,0.6 0.9,0.4 1.7,0.9 2.4,1.6 0.7,0.7 1.2,1.5 1.6,2.5 0.4,1 0.6,2 0.6,3.1 l 0,1.8 -4.7,0 0,-1.6 c 0,-0.9 -0.3,-1.7 -0.8,-2.4 -0.5,-0.7 -1.2,-1 -2.1,-1 -1.2,0 -1.9,0.4 -2.3,1.1 -0.4,0.7 -0.6,1.6 -0.6,2.7 l 0,16.7 c 0,0.9 0.2,1.7 0.6,2.4 0.4,0.6 1.2,1 2.2,1 0.3,0 0.6,-0.1 1,-0.2 0.4,-0.1 0.7,-0.3 1,-0.5 0.3,-0.2 0.5,-0.6 0.7,-1 0.2,-0.4 0.3,-1 0.3,-1.6 l 0,-1.6 4.7,0 0,2.2 z"
       id="path3974"
       inkscape:connector-curvature="0"
       style="fill:#000000;fill-opacity:1" /><path
       d="m 315,315.7 4.7,0 0,14 5.8,0 0,-14 4.7,0 0,32.7 -4.7,0 0,-14.6 -5.8,0 0,14.6 -4.7,0 0,-32.7 z"
       id="path3976"
       inkscape:connector-curvature="0"
       style="fill:#000000;fill-opacity:1" /><path
       d="m 334.4,315.7 4.5,0 7.1,19.7 0.1,0 0,-19.7 4.7,0 0,32.7 -4.4,0 -7.2,-19.7 -0.1,0 0,19.7 -4.7,0 0,-32.7 z"
       id="path3978"
       inkscape:connector-curvature="0"
       style="fill:#000000;fill-opacity:1" /><path
       d="m 354.7,323.4 c 0,-1.3 0.2,-2.5 0.7,-3.5 0.5,-1 1.1,-1.8 1.8,-2.5 0.7,-0.7 1.6,-1.2 2.5,-1.5 0.9,-0.3 1.9,-0.5 2.8,-0.5 0.9,0 1.9,0.2 2.8,0.5 0.9,0.3 1.8,0.8 2.5,1.5 0.7,0.7 1.4,1.5 1.8,2.5 0.5,1 0.7,2.2 0.7,3.5 l 0,17.3 c 0,1.3 -0.2,2.5 -0.7,3.5 -0.5,1 -1.1,1.8 -1.8,2.5 -0.7,0.7 -1.6,1.2 -2.5,1.5 -0.9,0.3 -1.9,0.5 -2.8,0.5 -1,0 -1.9,-0.2 -2.8,-0.5 -0.9,-0.3 -1.8,-0.8 -2.5,-1.5 -0.7,-0.7 -1.4,-1.5 -1.8,-2.5 -0.5,-1 -0.7,-2.2 -0.7,-3.5 l 0,-17.3 z m 4.7,17.3 c 0,1.1 0.3,2 0.9,2.5 0.6,0.5 1.4,0.8 2.2,0.8 0.9,0 1.6,-0.3 2.2,-0.8 0.6,-0.5 0.9,-1.4 0.9,-2.5 l 0,-17.3 c 0,-1.1 -0.3,-2 -0.9,-2.5 -0.6,-0.5 -1.4,-0.8 -2.2,-0.8 -0.9,0 -1.6,0.3 -2.2,0.8 -0.6,0.5 -0.9,1.4 -0.9,2.5 l 0,17.3 z"
       id="path3980"
       inkscape:connector-curvature="0"
       style="fill:#000000;fill-opacity:1" /><path
       d="m 374.6,315.7 4.7,0 0,28 9.3,0 0,4.7 -14,0 0,-32.7 z"
       id="path3982"
       inkscape:connector-curvature="0"
       style="fill:#000000;fill-opacity:1" /><path
       d="m 391.3,323.4 c 0,-1.3 0.2,-2.5 0.7,-3.5 0.5,-1 1.1,-1.8 1.8,-2.5 0.7,-0.7 1.6,-1.2 2.5,-1.5 0.9,-0.3 1.9,-0.5 2.8,-0.5 0.9,0 1.9,0.2 2.8,0.5 0.9,0.3 1.8,0.8 2.5,1.5 0.7,0.7 1.4,1.5 1.8,2.5 0.5,1 0.7,2.2 0.7,3.5 l 0,17.3 c 0,1.3 -0.2,2.5 -0.7,3.5 -0.5,1 -1.1,1.8 -1.8,2.5 -0.8,0.7 -1.6,1.2 -2.5,1.5 -0.9,0.3 -1.9,0.5 -2.8,0.5 -0.9,0 -1.9,-0.2 -2.8,-0.5 -0.9,-0.3 -1.8,-0.8 -2.5,-1.5 -0.7,-0.7 -1.4,-1.5 -1.8,-2.5 -0.5,-1 -0.7,-2.2 -0.7,-3.5 l 0,-17.3 z m 4.7,17.3 c 0,1.1 0.3,2 0.9,2.5 0.6,0.5 1.4,0.8 2.2,0.8 0.9,0 1.6,-0.3 2.2,-0.8 0.6,-0.5 0.9,-1.4 0.9,-2.5 l 0,-17.3 c 0,-1.1 -0.3,-2 -0.9,-2.5 -0.6,-0.5 -1.4,-0.8 -2.2,-0.8 -0.9,0 -1.6,0.3 -2.2,0.8 -0.6,0.5 -0.9,1.4 -0.9,2.5 l 0,17.3 z"
       id="path3984"
       inkscape:connector-curvature="0"
       style="fill:#000000;fill-opacity:1" /><path
       d="m 410.9,323.4 c 0,-1.3 0.2,-2.5 0.7,-3.5 0.5,-1 1.1,-1.8 1.8,-2.5 0.7,-0.7 1.6,-1.2 2.5,-1.5 0.9,-0.3 1.9,-0.5 2.8,-0.5 0.9,0 1.9,0.2 2.8,0.5 0.9,0.3 1.8,0.8 2.5,1.5 0.8,0.7 1.4,1.5 1.8,2.5 0.5,1 0.7,2.2 0.7,3.5 l 0,1.7 -4.7,0 0,-1.7 c 0,-1.1 -0.3,-2 -0.9,-2.5 -0.6,-0.5 -1.4,-0.8 -2.2,-0.8 -0.9,0 -1.6,0.3 -2.2,0.8 -0.6,0.5 -0.9,1.4 -0.9,2.5 l 0,17.3 c 0,1.1 0.3,2 0.9,2.5 0.6,0.5 1.4,0.8 2.2,0.8 0.9,0 1.6,-0.3 2.2,-0.8 0.6,-0.5 0.9,-1.4 0.9,-2.5 l 0,-6.2 -3.7,0 0,-4.1 8.4,0 0,10.3 c 0,1.3 -0.2,2.5 -0.7,3.5 -0.5,1 -1.1,1.8 -1.8,2.5 -0.7,0.7 -1.6,1.2 -2.5,1.5 -0.9,0.3 -1.9,0.5 -2.8,0.5 -1,0 -1.9,-0.2 -2.8,-0.5 -0.9,-0.3 -1.8,-0.8 -2.5,-1.5 -0.7,-0.7 -1.4,-1.5 -1.8,-2.5 -0.5,-1 -0.7,-2.2 -0.7,-3.5 l 0,-17.3 z"
       id="path3986"
       inkscape:connector-curvature="0"
       style="fill:#000000;fill-opacity:1" /><path
       d="m 435.1,334.6 -6.4,-18.9 5,0 3.8,13 0.1,0 3.8,-13 5,0 -6.4,18.9 0,13.8 -4.7,0 0,-13.8 z"
       id="path3988"
       inkscape:connector-curvature="0"
       style="fill:#000000;fill-opacity:1" /><path
       d="m 264.1,361 14,0 0,4.4 -9.3,0 0,9.9 8.1,0 0,4.4 -8.1,0 0,14 -4.7,0 0,-32.7 z"
       id="path3990"
       inkscape:connector-curvature="0"
       style="fill:#000000;fill-opacity:1" /><path
       d="m 280.8,368.7 c 0,-1.3 0.2,-2.5 0.7,-3.5 0.5,-1 1.1,-1.8 1.8,-2.5 0.7,-0.7 1.6,-1.2 2.5,-1.5 0.9,-0.3 1.9,-0.5 2.8,-0.5 0.9,0 1.9,0.2 2.8,0.5 0.9,0.3 1.8,0.8 2.5,1.5 0.7,0.7 1.4,1.5 1.8,2.5 0.5,1 0.7,2.2 0.7,3.5 l 0,17.3 c 0,1.3 -0.2,2.5 -0.7,3.5 -0.5,1 -1.1,1.8 -1.8,2.5 -0.8,0.7 -1.6,1.2 -2.5,1.5 -0.9,0.3 -1.9,0.5 -2.8,0.5 -0.9,0 -1.9,-0.2 -2.8,-0.5 -0.9,-0.3 -1.8,-0.8 -2.5,-1.5 -0.7,-0.7 -1.4,-1.5 -1.8,-2.5 -0.5,-1 -0.7,-2.2 -0.7,-3.5 l 0,-17.3 z m 4.7,17.3 c 0,1.1 0.3,2 0.9,2.5 0.6,0.5 1.4,0.8 2.2,0.8 0.9,0 1.6,-0.3 2.2,-0.8 0.6,-0.5 0.9,-1.4 0.9,-2.5 l 0,-17.3 c 0,-1.1 -0.3,-2 -0.9,-2.5 -0.6,-0.5 -1.4,-0.8 -2.2,-0.8 -0.9,0 -1.6,0.3 -2.2,0.8 -0.6,0.5 -0.9,1.4 -0.9,2.5 l 0,17.3 z"
       id="path3992"
       inkscape:connector-curvature="0"
       style="fill:#000000;fill-opacity:1" /><path
       d="m 315.8,386.3 c 0,1.1 -0.2,2.1 -0.6,3 -0.4,0.9 -0.9,1.7 -1.6,2.4 -0.7,0.7 -1.5,1.2 -2.4,1.6 -0.9,0.4 -1.9,0.6 -2.9,0.6 -1,0 -2,-0.2 -2.9,-0.6 -0.9,-0.4 -1.7,-0.9 -2.4,-1.6 -0.7,-0.7 -1.2,-1.5 -1.6,-2.4 -0.4,-0.9 -0.6,-1.9 -0.6,-3 l 0,-25.3 4.7,0 0,24.9 c 0,1.2 0.3,2 0.8,2.6 0.6,0.6 1.2,0.8 2.1,0.8 0.8,0 1.5,-0.3 2.1,-0.8 0.6,-0.6 0.8,-1.4 0.8,-2.6 l 0,-24.9 4.7,0 0,25.3 z"
       id="path3994"
       inkscape:connector-curvature="0"
       style="fill:#000000;fill-opacity:1" /><path
       d="m 320.1,361 4.5,0 7.1,19.7 0.1,0 0,-19.7 4.7,0 0,32.7 -4.5,0 -7.2,-19.7 -0.1,0 0,19.7 -4.7,0 0,-32.7 z"
       id="path3996"
       inkscape:connector-curvature="0"
       style="fill:#000000;fill-opacity:1" /><path
       d="m 340.6,361 6.9,0 c 2.7,0 4.7,0.7 6.1,2.2 1.4,1.5 2.1,3.6 2.1,6.2 l 0,15.3 c 0,3.1 -0.7,5.3 -2.2,6.8 -1.5,1.5 -3.6,2.2 -6.4,2.2 l -6.5,0 0,-32.7 z m 4.7,28.3 2.2,0 c 1.3,0 2.3,-0.3 2.8,-1 0.5,-0.7 0.8,-1.7 0.8,-3.1 l 0,-15.8 c 0,-1.3 -0.3,-2.3 -0.8,-3 -0.5,-0.7 -1.5,-1.1 -2.8,-1.1 l -2.2,0 0,24 z"
       id="path3998"
       inkscape:connector-curvature="0"
       style="fill:#000000;fill-opacity:1" /><path
       d="m 364.8,361 3.9,0 7.3,32.7 -4.7,0 -1.4,-7 -6.4,0 -1.4,7 -4.7,0 7.4,-32.7 z m 2,9.4 0,0 -2.4,11.9 4.7,0 -2.3,-11.9 z"
       id="path4000"
       inkscape:connector-curvature="0"
       style="fill:#000000;fill-opacity:1" /><path
       d="m 378.9,365.4 -5.4,0 0,-4.4 15.5,0 0,4.4 -5.4,0 0,28.3 -4.7,0 0,-28.3 z"
       id="path4002"
       inkscape:connector-curvature="0"
       style="fill:#000000;fill-opacity:1" /><path
       d="m 391.2,361 4.7,0 0,32.7 -4.7,0 0,-32.7 z"
       id="path4004"
       inkscape:connector-curvature="0"
       style="fill:#000000;fill-opacity:1" /><path
       d="m 400.2,368.7 c 0,-1.3 0.2,-2.5 0.7,-3.5 0.5,-1 1.1,-1.8 1.8,-2.5 0.7,-0.7 1.6,-1.2 2.5,-1.5 0.9,-0.3 1.9,-0.5 2.8,-0.5 0.9,0 1.9,0.2 2.8,0.5 0.9,0.3 1.8,0.8 2.5,1.5 0.7,0.7 1.4,1.5 1.8,2.5 0.5,1 0.7,2.2 0.7,3.5 l 0,17.3 c 0,1.3 -0.2,2.5 -0.7,3.5 -0.5,1 -1.1,1.8 -1.8,2.5 -0.8,0.7 -1.6,1.2 -2.5,1.5 -0.9,0.3 -1.9,0.5 -2.8,0.5 -0.9,0 -1.9,-0.2 -2.8,-0.5 -0.9,-0.3 -1.8,-0.8 -2.5,-1.5 -0.7,-0.7 -1.4,-1.5 -1.8,-2.5 -0.5,-1 -0.7,-2.2 -0.7,-3.5 l 0,-17.3 z m 4.6,17.3 c 0,1.1 0.3,2 0.9,2.5 0.6,0.5 1.4,0.8 2.2,0.8 0.9,0 1.6,-0.3 2.2,-0.8 0.6,-0.5 0.9,-1.4 0.9,-2.5 l 0,-17.3 c 0,-1.1 -0.3,-2 -0.9,-2.5 -0.6,-0.5 -1.4,-0.8 -2.2,-0.8 -0.9,0 -1.6,0.3 -2.2,0.8 -0.6,0.5 -0.9,1.4 -0.9,2.5 l 0,17.3 z"
       id="path4006"
       inkscape:connector-curvature="0"
       style="fill:#000000;fill-opacity:1" /><path
       d="m 419.8,361 4.5,0 7.1,19.7 0.1,0 0,-19.7 4.7,0 0,32.7 -4.4,0 -7.2,-19.7 -0.1,0 0,19.7 -4.7,0 0,-32.7 z"
       id="path4008"
       inkscape:connector-curvature="0"
       style="fill:#000000;fill-opacity:1" /></g><path
     d="m 188.6,111.6 c -9.6,0 -17.4,7.8 -17.4,17.4 0,3.5 1.1,6.8 2.9,9.5 L 140.4,171 c -2,-1.4 -4.3,-2.4 -6.8,-2.9 l 0,-22.1 c 8,-1.5 14.2,-8.6 14.2,-17.1 0,-8.5 -6.1,-15.6 -14.2,-17.1 l 0,-38.3 c 0,-1.8 -1.4,-3.2 -3.2,-3.2 l -37.5,0 C 92.4,67.5 91.2,65 89.5,62.8 l 31.4,-31 c 2.7,1.8 6,2.9 9.5,2.9 4,0 7.6,-1.4 10.6,-3.6 l 33.2,32.8 c -1.9,2.8 -3,6.1 -3,9.7 0,9.6 7.8,17.4 17.4,17.4 9.6,0 17.4,-7.8 17.4,-17.4 0,-9.6 -7.8,-17.4 -17.4,-17.4 -3.7,0 -7.1,1.2 -9.9,3.1 l -33.5,-33 c 1.6,-2.6 2.5,-5.7 2.5,-8.9 C 147.7,7.8 139.9,0 130.3,0 121.8,0 114.7,6.1 113.2,14.2 l -20.4,0 C 91.3,6.2 84.2,0 75.7,0 66.1,0 58.3,7.8 58.3,17.4 c 0,3.3 0.9,6.3 2.5,8.9 l -33.5,33 C 24.5,57.4 21.1,56.2 17.4,56.2 7.8,56.2 0,64 0,73.6 0,83.2 7.8,91 17.4,91 27,91 34.8,83.2 34.8,73.6 c 0,-3.6 -1.1,-6.9 -3,-9.7 L 65.2,31.2 c 2.9,2.3 6.6,3.6 10.6,3.6 8.5,0 15.6,-6.1 17.1,-14.2 l 20.4,0 c 0.5,2.5 1.5,4.8 2.9,6.8 L 84.6,58.6 C 82,57.1 79,56.2 75.8,56.2 c -9.6,0 -17.4,7.8 -17.4,17.4 0,9.6 7.8,17.4 17.4,17.4 8.5,0 15.6,-6.1 17.1,-14.2 l 34.3,0 0,35.1 c -8,1.5 -14.2,8.6 -14.2,17.1 0,8.5 6.1,15.6 14.2,17.1 l 0,22.1 c -7,1.3 -12.5,6.8 -13.8,13.8 L 93,182 c -1.5,-8 -8.6,-14.2 -17.1,-14.2 -4,0 -7.6,1.4 -10.6,3.6 L 32.1,138.7 c 1.3,-1.9 2.2,-4.1 2.6,-6.5 l 24.1,0 c 1.5,8 8.6,14.2 17.1,14.2 9.6,0 17.4,-7.8 17.4,-17.4 0,-9.6 -7.8,-17.4 -17.4,-17.4 -8.5,0 -15.6,6.1 -17.1,14.2 l -24.2,0 c -1.5,-8 -8.6,-14.2 -17.1,-14.2 -9.6,0 -17.4,7.8 -17.4,17.4 0,9.6 7.8,17.4 17.4,17.4 3.7,0 7.1,-1.2 9.9,-3.1 l 33.5,33 c -1.6,2.6 -2.5,5.7 -2.5,8.9 0,9.6 7.8,17.4 17.4,17.4 8.5,0 15.6,-6.1 17.1,-14.2 l 20.4,0 c 1.5,8 8.6,14.2 17.1,14.2 9.6,0 17.4,-7.8 17.4,-17.4 0,-3.5 -1.1,-6.8 -2.9,-9.5 l 33.7,-32.5 c 2.8,2 6.3,3.2 10,3.2 9.6,0 17.4,-7.8 17.4,-17.4 0,-9.6 -7.8,-17.4 -17.4,-17.4 z m -9.7,-43 c 1,-2 2.6,-3.6 4.5,-4.6 1.5,-0.8 3.3,-1.3 5.2,-1.3 6,0 10.9,4.9 10.9,10.9 0,6 -4.9,10.9 -10.9,10.9 -6,0 -10.9,-4.9 -10.9,-10.9 0,-1.8 0.4,-3.5 1.2,-5 z M 130.4,6.5 c 6,0 10.9,4.9 10.9,10.9 0,6 -4.9,10.9 -10.9,10.9 -1.7,0 -3.3,-0.4 -4.7,-1.1 -2,-1 -3.6,-2.5 -4.7,-4.4 -0.9,-1.6 -1.4,-3.4 -1.4,-5.4 -0.1,-6 4.8,-10.9 10.8,-10.9 z m -112.8,78 c -6,0 -10.9,-4.9 -10.9,-10.9 0,-6 4.9,-10.9 10.9,-10.9 6,0 10.9,4.9 10.9,10.9 0,6 -4.9,10.9 -10.9,10.9 z M 75.8,28.3 c -6,0 -10.9,-4.9 -10.9,-10.9 0,-6 4.9,-10.9 10.9,-10.9 6,0 10.9,4.9 10.9,10.9 0,6 -4.9,10.9 -10.9,10.9 z m 10.4,48.6 c -1.4,4.4 -5.5,7.7 -10.4,7.7 -6,0 -10.9,-4.9 -10.9,-10.9 0,-6 4.9,-10.9 10.9,-10.9 4.9,0 9,3.2 10.4,7.7 0.3,1 0.5,2.1 0.5,3.2 0,1.1 -0.2,2.1 -0.5,3.2 z m -10.4,41.2 c 6,0 10.9,4.9 10.9,10.9 0,6 -4.9,10.9 -10.9,10.9 -6,0 -10.9,-4.9 -10.9,-10.9 0,-6 4.9,-10.9 10.9,-10.9 z M 27.3,134 c -1,2 -2.6,3.6 -4.5,4.6 -1.5,0.8 -3.3,1.3 -5.2,1.3 -6,0 -10.9,-4.9 -10.9,-10.9 0,-6 4.9,-10.9 10.9,-10.9 6,0 10.9,4.9 10.9,10.9 0,1.8 -0.5,3.5 -1.2,5 z m 58.9,54.5 c -1.4,4.4 -5.5,7.7 -10.4,7.7 -6,0 -10.9,-4.9 -10.9,-10.9 0,-1.5 0.3,-2.9 0.8,-4.2 0.9,-2.1 2.3,-3.8 4.2,-5 1.7,-1.1 3.7,-1.7 5.9,-1.7 4.9,0 9,3.2 10.4,7.7 0.3,1 0.5,2.1 0.5,3.2 0,1.1 -0.2,2.1 -0.5,3.2 z M 119.5,129 c 0,-4.9 3.2,-9 7.7,-10.4 1,-0.3 2.1,-0.5 3.2,-0.5 1.1,0 2.2,0.2 3.2,0.5 4.4,1.4 7.7,5.5 7.7,10.4 0,6 -4.9,10.9 -10.9,10.9 -6,0 -10.9,-4.9 -10.9,-10.9 z m 10.9,67.1 c -6,0 -10.9,-4.9 -10.9,-10.9 0,-6 4.9,-10.9 10.9,-10.9 6,0 10.9,4.9 10.9,10.9 0,6 -4.9,10.9 -10.9,10.9 z m 58.2,-56.2 c -6,0 -10.9,-4.9 -10.9,-10.9 0,-6 4.9,-10.9 10.9,-10.9 6,0 10.9,4.9 10.9,10.9 0,6 -4.9,10.9 -10.9,10.9 z"
     id="path4010"
     inkscape:connector-curvature="0"
     style="stroke:none;stroke-opacity:1;fill:#000000;fill-opacity:1" /></svg>