<?xml version="1.0" encoding="UTF-8" standalone="no"?>
<svg
   xmlns:dc="http://purl.org/dc/elements/1.1/"
   xmlns:cc="http://creativecommons.org/ns#"
   xmlns:rdf="http://www.w3.org/1999/02/22-rdf-syntax-ns#"
   xmlns:svg="http://www.w3.org/2000/svg"
   xmlns="http://www.w3.org/2000/svg"
   xmlns:sodipodi="http://sodipodi.sourceforge.net/DTD/sodipodi-0.dtd"
   xmlns:inkscape="http://www.inkscape.org/namespaces/inkscape"
   inkscape:version="1.0 (4035a4f, 2020-05-01)"
   sodipodi:docname="noun_Vote_52105.svg"
   id="svg20"
   xml:space="preserve"
   enable-background="new 0 0 100 100"
   viewBox="0 0 100 100"
   y="0px"
   x="0px"
   version="1.1"
   fill="#000000"
   width="100px"
   height="100px"><metadata
     id="metadata26"><rdf:RDF><cc:Work
         rdf:about=""><dc:format>image/svg+xml</dc:format><dc:type
           rdf:resource="http://purl.org/dc/dcmitype/StillImage" /></cc:Work></rdf:RDF></metadata><defs
     id="defs24" /><sodipodi:namedview
     inkscape:current-layer="svg20"
     inkscape:window-maximized="0"
     inkscape:window-y="25"
     inkscape:window-x="340"
     inkscape:cy="50"
     inkscape:cx="23.809524"
     inkscape:zoom="7.35"
     showgrid="false"
     id="namedview22"
     inkscape:window-height="1108"
     inkscape:window-width="1318"
     inkscape:pageshadow="2"
     inkscape:pageopacity="0"
     guidetolerance="10"
     gridtolerance="10"
     objecttolerance="10"
     borderopacity="1"
     bordercolor="#666666"
     pagecolor="#ffffff" /><path
     id="path10"
     d="M81.944-0.5c-1.534,0-2.777,1.244-2.777,2.778v18.056c0,1.534,1.243,2.778,2.777,2.778H100V-0.5H81.944z" /><rect
     id="rect12"
     height="13.889"
     width="94.444"
     y="85.611"
     x="2.777" /><polygon
     id="polygon16"
     points="72.223,49.501 72.223,57.835 77.092,57.835 79.167,64.777 50,64.777 20.833,64.777 22.907,57.835 27.777,57.835   27.777,49.501 11.111,49.501 0,74.5 0,82.833 100,82.833 100,74.5 88.889,49.501 " /><path
     id="path18"
     d="M49.999,20.333c1.389-2.778,11.052-2.718,6.944,1.389l-9.805,10.864C45.994,33.731,45.08,41.69,51.387,37l19.444-13.889  l1.39-4.167l4.166-4.167V2.278H62.5l-13.889,8.333c-2.535,1.64-4.167,2.777-5.557,6.944c-0.693,2.083-2.777,8.333-2.777,8.333h7.812  L49.999,20.333z" /><g
     style="fill:#00b3e0;fill-opacity:1"
     id="g38"><path
       style="fill:#00b3e0;fill-opacity:1"
       d="M69.446,28.667h-0.002h-1.611L53.042,39.233c-1.827,1.354-3.436,2.01-4.916,2.01c-1.872,0-3.428-1.058-4.162-2.83  c-1.003-2.423-0.328-6.224,1.411-8.061c0.171-0.197,0.716-0.82,1.477-1.686h-6.573h-3.854h-5.867V62h38.89V28.667z M38.031,59.584  l-1.289-0.941l-1.291,0.941l0.492-1.525l-1.29-0.941h1.59l0.499-1.518l0.492,1.518h1.59l-1.291,0.942L38.031,59.584z M39.585,52.928  l-1.29-0.939l-1.291,0.939l0.493-1.523l-1.291-0.941h1.596l0.492-1.525l0.491,1.525h1.596l-1.29,0.941L39.585,52.928z   M44.458,47.859l-1.291-0.94l-1.29,0.94l0.492-1.519l-1.291-0.94h1.598l0.491-1.525l0.492,1.525h1.59l-1.284,0.94L44.458,47.859z   M51.272,46.135l-1.289-0.946l-1.29,0.946l0.493-1.525l-1.291-0.935l1.596-0.005l0.492-1.525l0.498,1.525h1.589l-1.29,0.94  L51.272,46.135z M57.747,47.859l-1.284-0.94l-1.29,0.94l0.491-1.519l-1.289-0.94h1.591l0.498-1.525l0.491,1.525h1.589l-1.289,0.94  L57.747,47.859z M59.393,50.229l1.595-0.006l0.492-1.52l0.498,1.52h1.589l-1.29,0.945l0.492,1.525l-1.289-0.94l-1.289,0.94  l0.496-1.525L59.393,50.229z M64.509,59.492l-1.283-0.939l-1.296,0.939l0.497-1.523l-1.29-0.941h1.591l0.498-1.525l0.492,1.525  h1.588l-1.283,0.941L64.509,59.492z"
       id="path14" /><rect
       style="fill:#00b3e0;stroke-width:0.75;fill-opacity:1"
       id="rect34"
       width="34.013607"
       height="18.503401"
       x="33.197277"
       y="41.632652" /></g></svg>
