<?xml version="1.0" standalone="no"?>
<!DOCTYPE svg PUBLIC "-//W3C//DTD SVG 20010904//EN"
 "http://www.w3.org/TR/2001/REC-SVG-20010904/DTD/svg10.dtd">
<svg version="1.0" xmlns="http://www.w3.org/2000/svg"
 width="1200.000000pt" height="1200.000000pt" viewBox="0 0 1200.000000 1200.000000"
 preserveAspectRatio="xMidYMid meet">
<metadata>
Created by potrace 1.16, written by Peter Selinger 2001-2019
</metadata>
<g transform="translate(0.000000,1200.000000) scale(0.100000,-0.100000)"
fill="#000000" stroke="none">
<path d="M7560 10264 c-305 -35 -532 -91 -765 -189 -318 -133 -580 -310 -830
-560 -311 -311 -525 -669 -650 -1085 -29 -96 -75 -309 -75 -345 0 -13 -4 -26
-9 -30 -11 -6 -202 40 -356 86 -881 265 -1658 774 -2254 1477 -148 174 -247
244 -412 288 -85 23 -242 23 -329 0 -146 -39 -288 -132 -375 -248 -71 -94
-207 -378 -265 -555 -93 -283 -125 -492 -125 -813 1 -305 28 -495 111 -761
l36 -116 -36 -50 c-45 -62 -99 -179 -117 -253 -9 -36 -13 -106 -12 -205 5
-585 229 -1184 608 -1628 l64 -75 -8 -74 c-16 -144 12 -273 105 -496 130 -309
318 -588 562 -830 62 -63 112 -115 110 -117 -5 -4 -230 -44 -328 -57 -126 -17
-573 -17 -707 0 -227 29 -420 -36 -578 -193 -112 -113 -173 -237 -196 -400
-29 -214 67 -459 235 -597 72 -60 305 -202 501 -305 754 -400 1554 -628 2425
-693 174 -13 675 -13 855 0 1170 84 2193 443 3089 1084 1390 994 2305 2594
2491 4356 9 80 19 230 23 333 l8 188 70 61 c215 189 491 496 670 746 157 219
196 320 196 503 -1 195 -66 346 -212 489 l-67 66 14 69 c17 79 12 207 -11 292
-63 235 -264 433 -496 487 -84 20 -233 20 -318 1 -69 -16 -103 -31 -332 -153
-160 -84 -244 -121 -404 -177 l-118 -42 -137 91 c-323 216 -648 342 -1041 407
-93 16 -182 22 -350 24 -124 2 -241 1 -260 -1z m440 -684 c212 -27 408 -84
598 -175 182 -87 384 -229 507 -354 27 -28 56 -51 65 -51 9 0 79 16 157 35
330 81 671 215 962 380 l63 36 -6 -28 c-14 -53 -96 -238 -143 -321 -147 -254
-361 -484 -596 -640 -37 -25 -66 -47 -64 -49 7 -7 297 47 440 81 160 39 395
115 526 170 47 20 87 34 89 31 6 -6 -102 -157 -194 -270 -188 -234 -458 -495
-680 -657 l-51 -37 0 -263 c-1 -285 -18 -499 -59 -768 -252 -1644 -1239 -3113
-2619 -3902 -643 -367 -1330 -581 -2130 -665 -245 -25 -874 -25 -1100 0 -708
80 -1316 260 -1911 566 -171 88 -436 242 -429 249 2 2 84 -2 182 -9 748 -51
1521 131 2169 512 104 61 334 215 383 256 l34 29 -129 12 c-377 36 -737 183
-1028 421 -210 173 -409 430 -518 671 -44 97 -82 199 -76 205 3 3 31 -1 64 -7
36 -8 145 -13 284 -12 223 0 323 10 445 46 l40 11 -35 10 c-216 58 -380 124
-531 213 -530 313 -869 845 -928 1458 -6 60 -11 129 -11 152 l0 43 103 -49
c142 -67 289 -116 433 -145 133 -27 316 -44 299 -28 -5 5 -39 32 -75 59 -86
64 -238 211 -311 300 -186 228 -331 528 -389 806 -88 425 -29 880 164 1255 50
97 38 101 173 -54 871 -997 2094 -1643 3403 -1797 153 -18 352 -34 361 -30 4
2 1 32 -6 66 -96 461 8 992 272 1393 304 461 782 764 1323 840 117 16 367 19
480 5z"/>
</g>
</svg>
